G04 #@! TF.GenerationSoftware,KiCad,Pcbnew,(6.0.10)*
G04 #@! TF.CreationDate,2023-05-08T16:14:21+03:00*
G04 #@! TF.ProjectId,trinteract,7472696e-7465-4726-9163-742e6b696361,rev?*
G04 #@! TF.SameCoordinates,Original*
G04 #@! TF.FileFunction,Copper,L2,Bot*
G04 #@! TF.FilePolarity,Positive*
%FSLAX46Y46*%
G04 Gerber Fmt 4.6, Leading zero omitted, Abs format (unit mm)*
G04 Created by KiCad (PCBNEW (6.0.10)) date 2023-05-08 16:14:21*
%MOMM*%
%LPD*%
G01*
G04 APERTURE LIST*
G04 Aperture macros list*
%AMRoundRect*
0 Rectangle with rounded corners*
0 $1 Rounding radius*
0 $2 $3 $4 $5 $6 $7 $8 $9 X,Y pos of 4 corners*
0 Add a 4 corners polygon primitive as box body*
4,1,4,$2,$3,$4,$5,$6,$7,$8,$9,$2,$3,0*
0 Add four circle primitives for the rounded corners*
1,1,$1+$1,$2,$3*
1,1,$1+$1,$4,$5*
1,1,$1+$1,$6,$7*
1,1,$1+$1,$8,$9*
0 Add four rect primitives between the rounded corners*
20,1,$1+$1,$2,$3,$4,$5,0*
20,1,$1+$1,$4,$5,$6,$7,0*
20,1,$1+$1,$6,$7,$8,$9,0*
20,1,$1+$1,$8,$9,$2,$3,0*%
G04 Aperture macros list end*
G04 #@! TA.AperFunction,ComponentPad*
%ADD10C,5.600000*%
G04 #@! TD*
G04 #@! TA.AperFunction,ComponentPad*
%ADD11C,1.752600*%
G04 #@! TD*
G04 #@! TA.AperFunction,SMDPad,CuDef*
%ADD12R,1.000000X1.700000*%
G04 #@! TD*
G04 #@! TA.AperFunction,ComponentPad*
%ADD13R,1.700000X1.700000*%
G04 #@! TD*
G04 #@! TA.AperFunction,ComponentPad*
%ADD14O,1.700000X1.700000*%
G04 #@! TD*
G04 #@! TA.AperFunction,SMDPad,CuDef*
%ADD15RoundRect,0.250000X0.450000X-0.350000X0.450000X0.350000X-0.450000X0.350000X-0.450000X-0.350000X0*%
G04 #@! TD*
G04 #@! TA.AperFunction,ViaPad*
%ADD16C,0.800000*%
G04 #@! TD*
G04 #@! TA.AperFunction,Conductor*
%ADD17C,0.250000*%
G04 #@! TD*
G04 APERTURE END LIST*
D10*
G04 #@! TO.P,H3,1*
G04 #@! TO.N,N/C*
X159000000Y-101000000D03*
G04 #@! TD*
G04 #@! TO.P,H1,1*
G04 #@! TO.N,N/C*
X125000000Y-92000000D03*
G04 #@! TD*
G04 #@! TO.P,H2,1*
G04 #@! TO.N,N/C*
X125000000Y-110000000D03*
G04 #@! TD*
D11*
G04 #@! TO.P,U2,1,TX*
G04 #@! TO.N,Net-(U2-Pad1)*
X158970000Y-108620000D03*
G04 #@! TO.P,U2,2,RX*
G04 #@! TO.N,Net-(U2-Pad2)*
X156430000Y-108620000D03*
G04 #@! TO.P,U2,3,GND*
G04 #@! TO.N,GND*
X153890000Y-108620000D03*
G04 #@! TO.P,U2,4,GND*
X151350000Y-108620000D03*
G04 #@! TO.P,U2,5,SDA*
G04 #@! TO.N,Net-(R3-Pad2)*
X148810000Y-108620000D03*
G04 #@! TO.P,U2,6,SCL*
G04 #@! TO.N,Net-(R1-Pad2)*
X146270000Y-108620000D03*
G04 #@! TO.P,U2,7,D4*
G04 #@! TO.N,Net-(R4-Pad1)*
X143730000Y-108620000D03*
G04 #@! TO.P,U2,8,D5*
G04 #@! TO.N,Net-(U2-Pad8)*
X141190000Y-108620000D03*
G04 #@! TO.P,U2,9,D6*
G04 #@! TO.N,Net-(U2-Pad9)*
X138650000Y-108620000D03*
G04 #@! TO.P,U2,10,D7*
G04 #@! TO.N,Net-(U2-Pad10)*
X136110000Y-108620000D03*
G04 #@! TO.P,U2,11,D8*
G04 #@! TO.N,Net-(U2-Pad11)*
X133570000Y-108620000D03*
G04 #@! TO.P,U2,12,D9*
G04 #@! TO.N,Net-(U2-Pad12)*
X131030000Y-108620000D03*
G04 #@! TO.P,U2,13,D10*
G04 #@! TO.N,Net-(U2-Pad13)*
X131030000Y-93380000D03*
G04 #@! TO.P,U2,14,MOSI*
G04 #@! TO.N,Net-(U2-Pad14)*
X133570000Y-93380000D03*
G04 #@! TO.P,U2,15,MISO*
G04 #@! TO.N,Net-(U2-Pad15)*
X136110000Y-93380000D03*
G04 #@! TO.P,U2,16,SCLK*
G04 #@! TO.N,Net-(U2-Pad16)*
X138650000Y-93380000D03*
G04 #@! TO.P,U2,17,A0*
G04 #@! TO.N,Net-(U2-Pad17)*
X141190000Y-93380000D03*
G04 #@! TO.P,U2,18,A1*
G04 #@! TO.N,Net-(U2-Pad18)*
X143730000Y-93380000D03*
G04 #@! TO.P,U2,19,A2*
G04 #@! TO.N,Net-(U2-Pad19)*
X146270000Y-93380000D03*
G04 #@! TO.P,U2,20,A3*
G04 #@! TO.N,Net-(U2-Pad20)*
X148810000Y-93380000D03*
G04 #@! TO.P,U2,21,VCC*
G04 #@! TO.N,+3.3V*
X151350000Y-93380000D03*
G04 #@! TO.P,U2,22,RST*
G04 #@! TO.N,Net-(U2-Pad22)*
X153890000Y-93380000D03*
G04 #@! TO.P,U2,23,GND*
G04 #@! TO.N,GND*
X156430000Y-93380000D03*
G04 #@! TO.P,U2,24,RAW*
G04 #@! TO.N,Net-(U2-Pad24)*
X158970000Y-93380000D03*
G04 #@! TD*
D12*
G04 #@! TO.P,SW1,1,1*
G04 #@! TO.N,+3.3V*
X123100000Y-104150000D03*
X123100000Y-97850000D03*
G04 #@! TO.P,SW1,2,2*
G04 #@! TO.N,Net-(R4-Pad1)*
X126900000Y-104150000D03*
X126900000Y-97850000D03*
G04 #@! TD*
D13*
G04 #@! TO.P,J3,1,Pin_1*
G04 #@! TO.N,GND*
X151370000Y-111955000D03*
D14*
G04 #@! TO.P,J3,2,Pin_2*
X153910000Y-111955000D03*
G04 #@! TO.P,J3,3,Pin_3*
G04 #@! TO.N,Net-(U2-Pad2)*
X156450000Y-111955000D03*
G04 #@! TO.P,J3,4,Pin_4*
G04 #@! TO.N,Net-(U2-Pad1)*
X158990000Y-111955000D03*
G04 #@! TD*
D13*
G04 #@! TO.P,J1,1,Pin_1*
G04 #@! TO.N,Net-(U2-Pad24)*
X159000000Y-90000000D03*
D14*
G04 #@! TO.P,J1,2,Pin_2*
G04 #@! TO.N,GND*
X156460000Y-90000000D03*
G04 #@! TO.P,J1,3,Pin_3*
G04 #@! TO.N,Net-(U2-Pad22)*
X153920000Y-90000000D03*
G04 #@! TO.P,J1,4,Pin_4*
G04 #@! TO.N,+3.3V*
X151380000Y-90000000D03*
G04 #@! TO.P,J1,5,Pin_5*
G04 #@! TO.N,Net-(U2-Pad20)*
X148840000Y-90000000D03*
G04 #@! TO.P,J1,6,Pin_6*
G04 #@! TO.N,Net-(U2-Pad19)*
X146300000Y-90000000D03*
G04 #@! TO.P,J1,7,Pin_7*
G04 #@! TO.N,Net-(U2-Pad18)*
X143760000Y-90000000D03*
G04 #@! TO.P,J1,8,Pin_8*
G04 #@! TO.N,Net-(U2-Pad17)*
X141220000Y-90000000D03*
G04 #@! TO.P,J1,9,Pin_9*
G04 #@! TO.N,Net-(U2-Pad16)*
X138680000Y-90000000D03*
G04 #@! TO.P,J1,10,Pin_10*
G04 #@! TO.N,Net-(U2-Pad15)*
X136140000Y-90000000D03*
G04 #@! TO.P,J1,11,Pin_11*
G04 #@! TO.N,Net-(U2-Pad14)*
X133600000Y-90000000D03*
G04 #@! TO.P,J1,12,Pin_12*
G04 #@! TO.N,Net-(U2-Pad13)*
X131060000Y-90000000D03*
G04 #@! TD*
D15*
G04 #@! TO.P,R4,1*
G04 #@! TO.N,Net-(R4-Pad1)*
X130125000Y-102000000D03*
G04 #@! TO.P,R4,2*
G04 #@! TO.N,GND*
X130125000Y-100000000D03*
G04 #@! TD*
D13*
G04 #@! TO.P,J2,1,Pin_1*
G04 #@! TO.N,Net-(U2-Pad12)*
X131025000Y-112000000D03*
D14*
G04 #@! TO.P,J2,2,Pin_2*
G04 #@! TO.N,Net-(U2-Pad11)*
X133565000Y-112000000D03*
G04 #@! TO.P,J2,3,Pin_3*
G04 #@! TO.N,Net-(U2-Pad10)*
X136105000Y-112000000D03*
G04 #@! TO.P,J2,4,Pin_4*
G04 #@! TO.N,Net-(U2-Pad9)*
X138645000Y-112000000D03*
G04 #@! TO.P,J2,5,Pin_5*
G04 #@! TO.N,Net-(U2-Pad8)*
X141185000Y-112000000D03*
G04 #@! TD*
D16*
G04 #@! TO.N,GND*
X132500000Y-101000000D03*
X142000000Y-98500000D03*
X142500000Y-103500000D03*
G04 #@! TO.N,Net-(R3-Pad2)*
X139000000Y-101000000D03*
G04 #@! TD*
D17*
G04 #@! TO.N,+3.3V*
X149000000Y-96000000D02*
X149000000Y-95730000D01*
X124950000Y-96000000D02*
X130000000Y-96000000D01*
X123100000Y-97850000D02*
X123100000Y-104150000D01*
X123100000Y-97850000D02*
X124950000Y-96000000D01*
X129750000Y-96000000D02*
X149000000Y-96000000D01*
X149000000Y-95730000D02*
X151350000Y-93380000D01*
G04 #@! TO.N,Net-(R3-Pad2)*
X139000000Y-103000000D02*
X142500000Y-106500000D01*
X142500000Y-106500000D02*
X146690000Y-106500000D01*
X146690000Y-106500000D02*
X148810000Y-108620000D01*
X139000000Y-101000000D02*
X139000000Y-103000000D01*
G04 #@! TO.N,Net-(R4-Pad1)*
X126900000Y-104150000D02*
X127975000Y-104150000D01*
X130125000Y-102000000D02*
X137110000Y-102000000D01*
X126900000Y-97850000D02*
X126900000Y-104150000D01*
X127975000Y-104150000D02*
X130125000Y-102000000D01*
X137110000Y-102000000D02*
X143730000Y-108620000D01*
G04 #@! TD*
G04 #@! TA.AperFunction,Conductor*
G04 #@! TO.N,GND*
G36*
X155652764Y-92020002D02*
G01*
X155699257Y-92073658D01*
X155709361Y-92143932D01*
X155679867Y-92208512D01*
X155661154Y-92225960D01*
X155652436Y-92237640D01*
X155659180Y-92249970D01*
X156417188Y-93007978D01*
X156431132Y-93015592D01*
X156432965Y-93015461D01*
X156439580Y-93011210D01*
X157202115Y-92248675D01*
X157209136Y-92235819D01*
X157201364Y-92225153D01*
X157201024Y-92224884D01*
X157195790Y-92217502D01*
X157191183Y-92211179D01*
X157191265Y-92211120D01*
X157159960Y-92166968D01*
X157156727Y-92096045D01*
X157192350Y-92034632D01*
X157255521Y-92002229D01*
X157279114Y-92000000D01*
X158123812Y-92000000D01*
X158191933Y-92020002D01*
X158238426Y-92073658D01*
X158248530Y-92143932D01*
X158219036Y-92208512D01*
X158199466Y-92226759D01*
X158047444Y-92340900D01*
X157890120Y-92505530D01*
X157803477Y-92632545D01*
X157748568Y-92677545D01*
X157678044Y-92685716D01*
X157614296Y-92654462D01*
X157593599Y-92629978D01*
X157582083Y-92612178D01*
X157571398Y-92602975D01*
X157561831Y-92607379D01*
X156802022Y-93367188D01*
X156794408Y-93381132D01*
X156794539Y-93382965D01*
X156798790Y-93389580D01*
X157559320Y-94150110D01*
X157571330Y-94156669D01*
X157583071Y-94147700D01*
X157598245Y-94126582D01*
X157654239Y-94082934D01*
X157724942Y-94076487D01*
X157787907Y-94109289D01*
X157808000Y-94134271D01*
X157816747Y-94148545D01*
X157845990Y-94196264D01*
X157848692Y-94200674D01*
X157997786Y-94372793D01*
X158172989Y-94518249D01*
X158177441Y-94520851D01*
X158177446Y-94520854D01*
X158364360Y-94630078D01*
X158369597Y-94633138D01*
X158582329Y-94714372D01*
X158587395Y-94715403D01*
X158587396Y-94715403D01*
X158639630Y-94726030D01*
X158805472Y-94759771D01*
X158930256Y-94764347D01*
X159027870Y-94767927D01*
X159027875Y-94767927D01*
X159033034Y-94768116D01*
X159038154Y-94767460D01*
X159038156Y-94767460D01*
X159145894Y-94753658D01*
X159258903Y-94739181D01*
X159263852Y-94737696D01*
X159263858Y-94737695D01*
X159390204Y-94699789D01*
X159477013Y-94673745D01*
X159681507Y-94573564D01*
X159685711Y-94570566D01*
X159685715Y-94570563D01*
X159772408Y-94508725D01*
X159866893Y-94441330D01*
X160028193Y-94280592D01*
X160161073Y-94095669D01*
X160170543Y-94076509D01*
X160259673Y-93896168D01*
X160259674Y-93896166D01*
X160261967Y-93891526D01*
X160328164Y-93673646D01*
X160328839Y-93668520D01*
X160357450Y-93451201D01*
X160357451Y-93451194D01*
X160357887Y-93447879D01*
X160359546Y-93380000D01*
X160352179Y-93290393D01*
X160341311Y-93158202D01*
X160341310Y-93158196D01*
X160340887Y-93153051D01*
X160306327Y-93015461D01*
X160286672Y-92937208D01*
X160286671Y-92937204D01*
X160285413Y-92932197D01*
X160271497Y-92900192D01*
X160196672Y-92728106D01*
X160196670Y-92728103D01*
X160194612Y-92723369D01*
X160070923Y-92532175D01*
X159917668Y-92363750D01*
X159757984Y-92237640D01*
X159741830Y-92224882D01*
X159700767Y-92166965D01*
X159697535Y-92096042D01*
X159733160Y-92034631D01*
X159796331Y-92002228D01*
X159819922Y-92000000D01*
X160874000Y-92000000D01*
X160942121Y-92020002D01*
X160988614Y-92073658D01*
X161000000Y-92126000D01*
X161000000Y-98119442D01*
X160979998Y-98187563D01*
X160926342Y-98234056D01*
X160856068Y-98244160D01*
X160808917Y-98227332D01*
X160742992Y-98187563D01*
X160630066Y-98119442D01*
X160558443Y-98076236D01*
X160558437Y-98076233D01*
X160555528Y-98074478D01*
X160230475Y-97923593D01*
X160060751Y-97866145D01*
X159894255Y-97809789D01*
X159894250Y-97809788D01*
X159891028Y-97808697D01*
X159692681Y-97764724D01*
X159544493Y-97731871D01*
X159544487Y-97731870D01*
X159541158Y-97731132D01*
X159537769Y-97730758D01*
X159537764Y-97730757D01*
X159188338Y-97692180D01*
X159188333Y-97692180D01*
X159184957Y-97691807D01*
X159181558Y-97691801D01*
X159181557Y-97691801D01*
X159012080Y-97691505D01*
X158826592Y-97691182D01*
X158713413Y-97703277D01*
X158473639Y-97728901D01*
X158473631Y-97728902D01*
X158470256Y-97729263D01*
X158120117Y-97805606D01*
X157780271Y-97919317D01*
X157777178Y-97920739D01*
X157777177Y-97920740D01*
X157770974Y-97923593D01*
X157454694Y-98069066D01*
X157451760Y-98070822D01*
X157451758Y-98070823D01*
X157370522Y-98119442D01*
X157147193Y-98253101D01*
X157144467Y-98255163D01*
X157144465Y-98255164D01*
X157138620Y-98259585D01*
X156861367Y-98469270D01*
X156600559Y-98715043D01*
X156367819Y-98987546D01*
X156165871Y-99283591D01*
X155997077Y-99599714D01*
X155863411Y-99932218D01*
X155862491Y-99935492D01*
X155862489Y-99935497D01*
X155772962Y-100254000D01*
X155766437Y-100277213D01*
X155765875Y-100280570D01*
X155765875Y-100280571D01*
X155745294Y-100403562D01*
X155707290Y-100630663D01*
X155686661Y-100988434D01*
X155704792Y-101346340D01*
X155705329Y-101349695D01*
X155705330Y-101349701D01*
X155736829Y-101546357D01*
X155761470Y-101700195D01*
X155856033Y-102045859D01*
X155987374Y-102379288D01*
X155988957Y-102382303D01*
X156141439Y-102672738D01*
X156153957Y-102696582D01*
X156155858Y-102699411D01*
X156155864Y-102699421D01*
X156234923Y-102817072D01*
X156353834Y-102994029D01*
X156584665Y-103268150D01*
X156843751Y-103515738D01*
X157128061Y-103733897D01*
X157130979Y-103735671D01*
X157431355Y-103918303D01*
X157431360Y-103918306D01*
X157434270Y-103920075D01*
X157437358Y-103921521D01*
X157437357Y-103921521D01*
X157755710Y-104070649D01*
X157755720Y-104070653D01*
X157758794Y-104072093D01*
X157762012Y-104073195D01*
X157762015Y-104073196D01*
X158094615Y-104187071D01*
X158094623Y-104187073D01*
X158097838Y-104188174D01*
X158447435Y-104266959D01*
X158499728Y-104272917D01*
X158800114Y-104307142D01*
X158800122Y-104307142D01*
X158803497Y-104307527D01*
X158806901Y-104307545D01*
X158806904Y-104307545D01*
X159001227Y-104308562D01*
X159161857Y-104309403D01*
X159165243Y-104309053D01*
X159165245Y-104309053D01*
X159514932Y-104272917D01*
X159514941Y-104272916D01*
X159518324Y-104272566D01*
X159521657Y-104271852D01*
X159521660Y-104271851D01*
X159694186Y-104234864D01*
X159868727Y-104197446D01*
X160208968Y-104084922D01*
X160535066Y-103936311D01*
X160722604Y-103824959D01*
X160809672Y-103773262D01*
X160878457Y-103755682D01*
X160945828Y-103778081D01*
X160990394Y-103833348D01*
X161000000Y-103881603D01*
X161000000Y-109874000D01*
X160979998Y-109942121D01*
X160926342Y-109988614D01*
X160874000Y-110000000D01*
X159813758Y-110000000D01*
X159745637Y-109979998D01*
X159699144Y-109926342D01*
X159689040Y-109856068D01*
X159718534Y-109791488D01*
X159740587Y-109771423D01*
X159866893Y-109681330D01*
X160028193Y-109520592D01*
X160161073Y-109335669D01*
X160170543Y-109316509D01*
X160259673Y-109136168D01*
X160259674Y-109136166D01*
X160261967Y-109131526D01*
X160328164Y-108913646D01*
X160328839Y-108908520D01*
X160357450Y-108691201D01*
X160357451Y-108691194D01*
X160357887Y-108687879D01*
X160359546Y-108620000D01*
X160352179Y-108530393D01*
X160341311Y-108398202D01*
X160341310Y-108398196D01*
X160340887Y-108393051D01*
X160306327Y-108255461D01*
X160286672Y-108177208D01*
X160286671Y-108177204D01*
X160285413Y-108172197D01*
X160271497Y-108140192D01*
X160196672Y-107968106D01*
X160196670Y-107968103D01*
X160194612Y-107963369D01*
X160070923Y-107772175D01*
X159917668Y-107603750D01*
X159738963Y-107462618D01*
X159539607Y-107352567D01*
X159332867Y-107279356D01*
X159329829Y-107278280D01*
X159329825Y-107278279D01*
X159324954Y-107276554D01*
X159319861Y-107275647D01*
X159319858Y-107275646D01*
X159105857Y-107237527D01*
X159105851Y-107237526D01*
X159100768Y-107236621D01*
X159013698Y-107235557D01*
X158878239Y-107233902D01*
X158878237Y-107233902D01*
X158873070Y-107233839D01*
X158647976Y-107268283D01*
X158431529Y-107339029D01*
X158229544Y-107444176D01*
X158225411Y-107447279D01*
X158225408Y-107447281D01*
X158128450Y-107520079D01*
X158047444Y-107580900D01*
X157890120Y-107745530D01*
X157887211Y-107749795D01*
X157887209Y-107749798D01*
X157803784Y-107872094D01*
X157748873Y-107917096D01*
X157678348Y-107925267D01*
X157614601Y-107894013D01*
X157593904Y-107869529D01*
X157533731Y-107776515D01*
X157533729Y-107776512D01*
X157530923Y-107772175D01*
X157377668Y-107603750D01*
X157198963Y-107462618D01*
X156999607Y-107352567D01*
X156792867Y-107279356D01*
X156789829Y-107278280D01*
X156789825Y-107278279D01*
X156784954Y-107276554D01*
X156779861Y-107275647D01*
X156779858Y-107275646D01*
X156565857Y-107237527D01*
X156565851Y-107237526D01*
X156560768Y-107236621D01*
X156473698Y-107235557D01*
X156338239Y-107233902D01*
X156338237Y-107233902D01*
X156333070Y-107233839D01*
X156107976Y-107268283D01*
X155891529Y-107339029D01*
X155689544Y-107444176D01*
X155685411Y-107447279D01*
X155685408Y-107447281D01*
X155588450Y-107520079D01*
X155507444Y-107580900D01*
X155350120Y-107745530D01*
X155263477Y-107872545D01*
X155208568Y-107917545D01*
X155138044Y-107925716D01*
X155074296Y-107894462D01*
X155053599Y-107869978D01*
X155042083Y-107852178D01*
X155031398Y-107842975D01*
X155021831Y-107847379D01*
X154262022Y-108607188D01*
X154254408Y-108621132D01*
X154254539Y-108622965D01*
X154258790Y-108629580D01*
X155019320Y-109390110D01*
X155031330Y-109396669D01*
X155043071Y-109387700D01*
X155058245Y-109366582D01*
X155114239Y-109322934D01*
X155184942Y-109316487D01*
X155247907Y-109349289D01*
X155268000Y-109374271D01*
X155276747Y-109388545D01*
X155305990Y-109436264D01*
X155308692Y-109440674D01*
X155457786Y-109612793D01*
X155632989Y-109758249D01*
X155637450Y-109760856D01*
X155637456Y-109760860D01*
X155644903Y-109765212D01*
X155693628Y-109816850D01*
X155706699Y-109886632D01*
X155679968Y-109952405D01*
X155621922Y-109993284D01*
X155581334Y-110000000D01*
X154732897Y-110000000D01*
X154664776Y-109979998D01*
X154618283Y-109926342D01*
X154608179Y-109856068D01*
X154637673Y-109791488D01*
X154657225Y-109773699D01*
X154666504Y-109761881D01*
X154659515Y-109748725D01*
X153902812Y-108992022D01*
X153888868Y-108984408D01*
X153887035Y-108984539D01*
X153880420Y-108988790D01*
X153117510Y-109751700D01*
X153110750Y-109764080D01*
X153130057Y-109789871D01*
X153129533Y-109790263D01*
X153154618Y-109816847D01*
X153167691Y-109886629D01*
X153140962Y-109952402D01*
X153082917Y-109993283D01*
X153042326Y-110000000D01*
X152192897Y-110000000D01*
X152124776Y-109979998D01*
X152078283Y-109926342D01*
X152068179Y-109856068D01*
X152097673Y-109791488D01*
X152117225Y-109773699D01*
X152126504Y-109761881D01*
X152119515Y-109748725D01*
X151362812Y-108992022D01*
X151348868Y-108984408D01*
X151347035Y-108984539D01*
X151340420Y-108988790D01*
X150577510Y-109751700D01*
X150570750Y-109764080D01*
X150590057Y-109789871D01*
X150589533Y-109790263D01*
X150614618Y-109816847D01*
X150627691Y-109886629D01*
X150600962Y-109952402D01*
X150542917Y-109993283D01*
X150502326Y-110000000D01*
X149653758Y-110000000D01*
X149585637Y-109979998D01*
X149539144Y-109926342D01*
X149529040Y-109856068D01*
X149558534Y-109791488D01*
X149580587Y-109771423D01*
X149706893Y-109681330D01*
X149868193Y-109520592D01*
X149958999Y-109394222D01*
X149978845Y-109366603D01*
X150034840Y-109322955D01*
X150105543Y-109316509D01*
X150168508Y-109349312D01*
X150188601Y-109374295D01*
X150197333Y-109388545D01*
X150207790Y-109398006D01*
X150216568Y-109394222D01*
X150977978Y-108632812D01*
X150984356Y-108621132D01*
X151714408Y-108621132D01*
X151714539Y-108622965D01*
X151718790Y-108629580D01*
X152479320Y-109390110D01*
X152491330Y-109396669D01*
X152503070Y-109387700D01*
X152518563Y-109366140D01*
X152574557Y-109322493D01*
X152645261Y-109316047D01*
X152708225Y-109348850D01*
X152728318Y-109373833D01*
X152737333Y-109388545D01*
X152747790Y-109398006D01*
X152756568Y-109394222D01*
X153517978Y-108632812D01*
X153525592Y-108618868D01*
X153525461Y-108617035D01*
X153521210Y-108610420D01*
X152760922Y-107850132D01*
X152749386Y-107843832D01*
X152737102Y-107853456D01*
X152723774Y-107872995D01*
X152668863Y-107917999D01*
X152598338Y-107926171D01*
X152534591Y-107894917D01*
X152513894Y-107870433D01*
X152502085Y-107852179D01*
X152491398Y-107842975D01*
X152481831Y-107847379D01*
X151722022Y-108607188D01*
X151714408Y-108621132D01*
X150984356Y-108621132D01*
X150985592Y-108618868D01*
X150985461Y-108617035D01*
X150981210Y-108610420D01*
X150220922Y-107850132D01*
X150209386Y-107843832D01*
X150197101Y-107853457D01*
X150184078Y-107872548D01*
X150129167Y-107917551D01*
X150058642Y-107925722D01*
X149994895Y-107894468D01*
X149974200Y-107869987D01*
X149910923Y-107772175D01*
X149757668Y-107603750D01*
X149597984Y-107477640D01*
X150572436Y-107477640D01*
X150579180Y-107489970D01*
X151337188Y-108247978D01*
X151351132Y-108255592D01*
X151352965Y-108255461D01*
X151359580Y-108251210D01*
X152122115Y-107488675D01*
X152128142Y-107477640D01*
X153112436Y-107477640D01*
X153119180Y-107489970D01*
X153877188Y-108247978D01*
X153891132Y-108255592D01*
X153892965Y-108255461D01*
X153899580Y-108251210D01*
X154662115Y-107488675D01*
X154669136Y-107475819D01*
X154661607Y-107465486D01*
X154654156Y-107460536D01*
X154463932Y-107355526D01*
X154454523Y-107351298D01*
X154249697Y-107278765D01*
X154239734Y-107276133D01*
X154025810Y-107238027D01*
X154015557Y-107237058D01*
X153798274Y-107234403D01*
X153787991Y-107235123D01*
X153573205Y-107267990D01*
X153563177Y-107270379D01*
X153356638Y-107337886D01*
X153347141Y-107341878D01*
X153154400Y-107442211D01*
X153145672Y-107447708D01*
X153120889Y-107466315D01*
X153112436Y-107477640D01*
X152128142Y-107477640D01*
X152129136Y-107475819D01*
X152121607Y-107465486D01*
X152114156Y-107460536D01*
X151923932Y-107355526D01*
X151914523Y-107351298D01*
X151709697Y-107278765D01*
X151699734Y-107276133D01*
X151485810Y-107238027D01*
X151475557Y-107237058D01*
X151258274Y-107234403D01*
X151247991Y-107235123D01*
X151033205Y-107267990D01*
X151023177Y-107270379D01*
X150816638Y-107337886D01*
X150807141Y-107341878D01*
X150614400Y-107442211D01*
X150605672Y-107447708D01*
X150580889Y-107466315D01*
X150572436Y-107477640D01*
X149597984Y-107477640D01*
X149578963Y-107462618D01*
X149379607Y-107352567D01*
X149172867Y-107279356D01*
X149169829Y-107278280D01*
X149169825Y-107278279D01*
X149164954Y-107276554D01*
X149159861Y-107275647D01*
X149159858Y-107275646D01*
X148945857Y-107237527D01*
X148945851Y-107237526D01*
X148940768Y-107236621D01*
X148853698Y-107235557D01*
X148718239Y-107233902D01*
X148718237Y-107233902D01*
X148713070Y-107233839D01*
X148487976Y-107268283D01*
X148465449Y-107275646D01*
X148460679Y-107277205D01*
X148389715Y-107279356D01*
X148332439Y-107246535D01*
X147193652Y-106107747D01*
X147186112Y-106099461D01*
X147182000Y-106092982D01*
X147132348Y-106046356D01*
X147129507Y-106043602D01*
X147109770Y-106023865D01*
X147106573Y-106021385D01*
X147097551Y-106013680D01*
X147071100Y-105988841D01*
X147065321Y-105983414D01*
X147058375Y-105979595D01*
X147058372Y-105979593D01*
X147047566Y-105973652D01*
X147031047Y-105962801D01*
X147030583Y-105962441D01*
X147015041Y-105950386D01*
X147007772Y-105947241D01*
X147007768Y-105947238D01*
X146974463Y-105932826D01*
X146963813Y-105927609D01*
X146925060Y-105906305D01*
X146905437Y-105901267D01*
X146886734Y-105894863D01*
X146875420Y-105889967D01*
X146875419Y-105889967D01*
X146868145Y-105886819D01*
X146860322Y-105885580D01*
X146860312Y-105885577D01*
X146824476Y-105879901D01*
X146812856Y-105877495D01*
X146777711Y-105868472D01*
X146777710Y-105868472D01*
X146770030Y-105866500D01*
X146749776Y-105866500D01*
X146730065Y-105864949D01*
X146717886Y-105863020D01*
X146710057Y-105861780D01*
X146702165Y-105862526D01*
X146666039Y-105865941D01*
X146654181Y-105866500D01*
X142814595Y-105866500D01*
X142746474Y-105846498D01*
X142725500Y-105829595D01*
X139670405Y-102774500D01*
X139636379Y-102712188D01*
X139633500Y-102685405D01*
X139633500Y-101702524D01*
X139653502Y-101634403D01*
X139665858Y-101618221D01*
X139739040Y-101536944D01*
X139802168Y-101427604D01*
X139831223Y-101377279D01*
X139831224Y-101377278D01*
X139834527Y-101371556D01*
X139893542Y-101189928D01*
X139895043Y-101175652D01*
X139912814Y-101006565D01*
X139913504Y-101000000D01*
X139893542Y-100810072D01*
X139834527Y-100628444D01*
X139739040Y-100463056D01*
X139685472Y-100403562D01*
X139615675Y-100326045D01*
X139615674Y-100326044D01*
X139611253Y-100321134D01*
X139456752Y-100208882D01*
X139450724Y-100206198D01*
X139450722Y-100206197D01*
X139288319Y-100133891D01*
X139288318Y-100133891D01*
X139282288Y-100131206D01*
X139188887Y-100111353D01*
X139101944Y-100092872D01*
X139101939Y-100092872D01*
X139095487Y-100091500D01*
X138904513Y-100091500D01*
X138898061Y-100092872D01*
X138898056Y-100092872D01*
X138811113Y-100111353D01*
X138717712Y-100131206D01*
X138711682Y-100133891D01*
X138711681Y-100133891D01*
X138549278Y-100206197D01*
X138549276Y-100206198D01*
X138543248Y-100208882D01*
X138388747Y-100321134D01*
X138384326Y-100326044D01*
X138384325Y-100326045D01*
X138314529Y-100403562D01*
X138260960Y-100463056D01*
X138165473Y-100628444D01*
X138106458Y-100810072D01*
X138086496Y-101000000D01*
X138087186Y-101006565D01*
X138104958Y-101175652D01*
X138106458Y-101189928D01*
X138165473Y-101371556D01*
X138168776Y-101377278D01*
X138168777Y-101377279D01*
X138197832Y-101427604D01*
X138260960Y-101536944D01*
X138334137Y-101618215D01*
X138364853Y-101682221D01*
X138366500Y-101702524D01*
X138366500Y-102056405D01*
X138346498Y-102124526D01*
X138292842Y-102171019D01*
X138222568Y-102181123D01*
X138157988Y-102151629D01*
X138151405Y-102145500D01*
X137613652Y-101607747D01*
X137606112Y-101599461D01*
X137602000Y-101592982D01*
X137552348Y-101546356D01*
X137549507Y-101543602D01*
X137529770Y-101523865D01*
X137526573Y-101521385D01*
X137517551Y-101513680D01*
X137491100Y-101488841D01*
X137485321Y-101483414D01*
X137478375Y-101479595D01*
X137478372Y-101479593D01*
X137467566Y-101473652D01*
X137451047Y-101462801D01*
X137450583Y-101462441D01*
X137435041Y-101450386D01*
X137427772Y-101447241D01*
X137427768Y-101447238D01*
X137394463Y-101432826D01*
X137383813Y-101427609D01*
X137345060Y-101406305D01*
X137325437Y-101401267D01*
X137306734Y-101394863D01*
X137295420Y-101389967D01*
X137295419Y-101389967D01*
X137288145Y-101386819D01*
X137280322Y-101385580D01*
X137280312Y-101385577D01*
X137244476Y-101379901D01*
X137232856Y-101377495D01*
X137197711Y-101368472D01*
X137197710Y-101368472D01*
X137190030Y-101366500D01*
X137169776Y-101366500D01*
X137150065Y-101364949D01*
X137137886Y-101363020D01*
X137130057Y-101361780D01*
X137093127Y-101365271D01*
X137086039Y-101365941D01*
X137074181Y-101366500D01*
X131361781Y-101366500D01*
X131293660Y-101346498D01*
X131254637Y-101306803D01*
X131177332Y-101181880D01*
X131173478Y-101175652D01*
X131086537Y-101088862D01*
X131052458Y-101026579D01*
X131057461Y-100955759D01*
X131086382Y-100910671D01*
X131168739Y-100828171D01*
X131177751Y-100816760D01*
X131262816Y-100678757D01*
X131268963Y-100665576D01*
X131320138Y-100511290D01*
X131323005Y-100497914D01*
X131332672Y-100403562D01*
X131333000Y-100397146D01*
X131333000Y-100272115D01*
X131328525Y-100256876D01*
X131327135Y-100255671D01*
X131319452Y-100254000D01*
X130000000Y-100254000D01*
X130000000Y-99727885D01*
X130379000Y-99727885D01*
X130383475Y-99743124D01*
X130384865Y-99744329D01*
X130392548Y-99746000D01*
X131314884Y-99746000D01*
X131330123Y-99741525D01*
X131331328Y-99740135D01*
X131332999Y-99732452D01*
X131332999Y-99602905D01*
X131332662Y-99596386D01*
X131322743Y-99500794D01*
X131319851Y-99487400D01*
X131268412Y-99333216D01*
X131262239Y-99320038D01*
X131176937Y-99182193D01*
X131167901Y-99170792D01*
X131053171Y-99056261D01*
X131041760Y-99047249D01*
X130903757Y-98962184D01*
X130890576Y-98956037D01*
X130736290Y-98904862D01*
X130722914Y-98901995D01*
X130628562Y-98892328D01*
X130622145Y-98892000D01*
X130397115Y-98892000D01*
X130381876Y-98896475D01*
X130380671Y-98897865D01*
X130379000Y-98905548D01*
X130379000Y-99727885D01*
X130000000Y-99727885D01*
X130000000Y-96759500D01*
X130020002Y-96691379D01*
X130073658Y-96644886D01*
X130126000Y-96633500D01*
X148928207Y-96633500D01*
X148951816Y-96635732D01*
X148952119Y-96635790D01*
X148952123Y-96635790D01*
X148959906Y-96637275D01*
X149015951Y-96633749D01*
X149023862Y-96633500D01*
X149039856Y-96633500D01*
X149055730Y-96631494D01*
X149063590Y-96630752D01*
X149091049Y-96629024D01*
X149111737Y-96627723D01*
X149111738Y-96627723D01*
X149119650Y-96627225D01*
X149127191Y-96624775D01*
X149127487Y-96624679D01*
X149150631Y-96619506D01*
X149150935Y-96619468D01*
X149150940Y-96619467D01*
X149158797Y-96618474D01*
X149166162Y-96615558D01*
X149166166Y-96615557D01*
X149211011Y-96597801D01*
X149218430Y-96595129D01*
X149271875Y-96577764D01*
X149278572Y-96573514D01*
X149278831Y-96573350D01*
X149299958Y-96562585D01*
X149300246Y-96562471D01*
X149300251Y-96562468D01*
X149307617Y-96559552D01*
X149314025Y-96554896D01*
X149314031Y-96554893D01*
X149353052Y-96526542D01*
X149359589Y-96522099D01*
X149407018Y-96492000D01*
X149412659Y-96485993D01*
X149430446Y-96470312D01*
X149430691Y-96470134D01*
X149430693Y-96470132D01*
X149437107Y-96465472D01*
X149442162Y-96459362D01*
X149472903Y-96422204D01*
X149478134Y-96416270D01*
X149511158Y-96381102D01*
X149511160Y-96381099D01*
X149516586Y-96375321D01*
X149520558Y-96368097D01*
X149533881Y-96348494D01*
X149534080Y-96348254D01*
X149534084Y-96348247D01*
X149539133Y-96342144D01*
X149563047Y-96291324D01*
X149566629Y-96284292D01*
X149593695Y-96235060D01*
X149595665Y-96227385D01*
X149595668Y-96227379D01*
X149595744Y-96227081D01*
X149603776Y-96204772D01*
X149603906Y-96204497D01*
X149603909Y-96204489D01*
X149607283Y-96197318D01*
X149617806Y-96142151D01*
X149619532Y-96134429D01*
X149631529Y-96087707D01*
X149631529Y-96087706D01*
X149633500Y-96080030D01*
X149633500Y-96071793D01*
X149635732Y-96048184D01*
X149635790Y-96047881D01*
X149635790Y-96047877D01*
X149637275Y-96040094D01*
X149636847Y-96033289D01*
X149660920Y-95967021D01*
X149673335Y-95952570D01*
X150872247Y-94753658D01*
X150934559Y-94719632D01*
X150986462Y-94719282D01*
X151024954Y-94727113D01*
X151185472Y-94759771D01*
X151310256Y-94764347D01*
X151407870Y-94767927D01*
X151407875Y-94767927D01*
X151413034Y-94768116D01*
X151418154Y-94767460D01*
X151418156Y-94767460D01*
X151525894Y-94753658D01*
X151638903Y-94739181D01*
X151643852Y-94737696D01*
X151643858Y-94737695D01*
X151770204Y-94699789D01*
X151857013Y-94673745D01*
X152061507Y-94573564D01*
X152065711Y-94570566D01*
X152065715Y-94570563D01*
X152152408Y-94508725D01*
X152246893Y-94441330D01*
X152408193Y-94280592D01*
X152518528Y-94127044D01*
X152574523Y-94083396D01*
X152645226Y-94076950D01*
X152708191Y-94109753D01*
X152728283Y-94134735D01*
X152765989Y-94196264D01*
X152765992Y-94196269D01*
X152768692Y-94200674D01*
X152917786Y-94372793D01*
X153092989Y-94518249D01*
X153097441Y-94520851D01*
X153097446Y-94520854D01*
X153284360Y-94630078D01*
X153289597Y-94633138D01*
X153502329Y-94714372D01*
X153507395Y-94715403D01*
X153507396Y-94715403D01*
X153559630Y-94726030D01*
X153725472Y-94759771D01*
X153850256Y-94764347D01*
X153947870Y-94767927D01*
X153947875Y-94767927D01*
X153953034Y-94768116D01*
X153958154Y-94767460D01*
X153958156Y-94767460D01*
X154065894Y-94753658D01*
X154178903Y-94739181D01*
X154183852Y-94737696D01*
X154183858Y-94737695D01*
X154310204Y-94699789D01*
X154397013Y-94673745D01*
X154601507Y-94573564D01*
X154605711Y-94570566D01*
X154605715Y-94570563D01*
X154670881Y-94524080D01*
X155650750Y-94524080D01*
X155656031Y-94531134D01*
X155825353Y-94630078D01*
X155834640Y-94634528D01*
X156037638Y-94712045D01*
X156047540Y-94714922D01*
X156260456Y-94758240D01*
X156270708Y-94759463D01*
X156487847Y-94767425D01*
X156498133Y-94766958D01*
X156713670Y-94739347D01*
X156723748Y-94737205D01*
X156931877Y-94674763D01*
X156941475Y-94671002D01*
X157136615Y-94575404D01*
X157145454Y-94570135D01*
X157198104Y-94532580D01*
X157206504Y-94521881D01*
X157199515Y-94508725D01*
X156442812Y-93752022D01*
X156428868Y-93744408D01*
X156427035Y-93744539D01*
X156420420Y-93748790D01*
X155657510Y-94511700D01*
X155650750Y-94524080D01*
X154670881Y-94524080D01*
X154692408Y-94508725D01*
X154786893Y-94441330D01*
X154948193Y-94280592D01*
X155038999Y-94154222D01*
X155058845Y-94126603D01*
X155114840Y-94082955D01*
X155185543Y-94076509D01*
X155248508Y-94109312D01*
X155268601Y-94134295D01*
X155277333Y-94148545D01*
X155287790Y-94158006D01*
X155296568Y-94154222D01*
X156057978Y-93392812D01*
X156065592Y-93378868D01*
X156065461Y-93377035D01*
X156061210Y-93370420D01*
X155300922Y-92610132D01*
X155289386Y-92603832D01*
X155277101Y-92613457D01*
X155264078Y-92632548D01*
X155209167Y-92677551D01*
X155138642Y-92685722D01*
X155074895Y-92654468D01*
X155054200Y-92629987D01*
X154990923Y-92532175D01*
X154837668Y-92363750D01*
X154677984Y-92237640D01*
X154661830Y-92224882D01*
X154620767Y-92166965D01*
X154617535Y-92096042D01*
X154653160Y-92034631D01*
X154716331Y-92002228D01*
X154739922Y-92000000D01*
X155584643Y-92000000D01*
X155652764Y-92020002D01*
G37*
G04 #@! TD.AperFunction*
G04 #@! TD*
M02*
