%TF.GenerationSoftware,KiCad,Pcbnew,(6.0.10)*%
%TF.CreationDate,2023-05-08T16:14:59+03:00*%
%TF.ProjectId,trinteract,7472696e-7465-4726-9163-742e6b696361,rev?*%
%TF.SameCoordinates,Original*%
%TF.FileFunction,Drillmap*%
%TF.FilePolarity,Positive*%
%FSLAX45Y45*%
G04 Gerber Fmt 4.5, Leading zero omitted, Abs format (unit mm)*
G04 Created by KiCad (PCBNEW (6.0.10)) date 2023-05-08 16:14:59*
%MOMM*%
%LPD*%
G01*
G04 APERTURE LIST*
%ADD10C,0.100000*%
%ADD11C,0.200000*%
G04 APERTURE END LIST*
D10*
X12500000Y-8800000D02*
X15900000Y-8800000D01*
X16300000Y-9200000D02*
X16300000Y-11000000D01*
X15900000Y-11400000D02*
G75*
G03*
X16300000Y-11000000I0J400000D01*
G01*
X12100000Y-9200000D02*
X12100000Y-11000000D01*
X16300000Y-9200000D02*
G75*
G03*
X15900000Y-8800000I-400000J0D01*
G01*
X12100000Y-11000000D02*
G75*
G03*
X12500000Y-11400000I400000J0D01*
G01*
X12500000Y-8800000D02*
G75*
G03*
X12100000Y-9200000I0J-400000D01*
G01*
X12500000Y-11400000D02*
X15900000Y-11400000D01*
D11*
X12352619Y-11715476D02*
X12352619Y-11515476D01*
X12400238Y-11515476D01*
X12428809Y-11525000D01*
X12447857Y-11544048D01*
X12457381Y-11563095D01*
X12466905Y-11601190D01*
X12466905Y-11629762D01*
X12457381Y-11667857D01*
X12447857Y-11686905D01*
X12428809Y-11705952D01*
X12400238Y-11715476D01*
X12352619Y-11715476D01*
X12552619Y-11715476D02*
X12552619Y-11582143D01*
X12552619Y-11620238D02*
X12562143Y-11601190D01*
X12571667Y-11591667D01*
X12590714Y-11582143D01*
X12609762Y-11582143D01*
X12676428Y-11715476D02*
X12676428Y-11582143D01*
X12676428Y-11515476D02*
X12666905Y-11525000D01*
X12676428Y-11534524D01*
X12685952Y-11525000D01*
X12676428Y-11515476D01*
X12676428Y-11534524D01*
X12800238Y-11715476D02*
X12781190Y-11705952D01*
X12771667Y-11686905D01*
X12771667Y-11515476D01*
X12905000Y-11715476D02*
X12885952Y-11705952D01*
X12876428Y-11686905D01*
X12876428Y-11515476D01*
X13133571Y-11715476D02*
X13133571Y-11515476D01*
X13200238Y-11658333D01*
X13266905Y-11515476D01*
X13266905Y-11715476D01*
X13447857Y-11715476D02*
X13447857Y-11610714D01*
X13438333Y-11591667D01*
X13419286Y-11582143D01*
X13381190Y-11582143D01*
X13362143Y-11591667D01*
X13447857Y-11705952D02*
X13428809Y-11715476D01*
X13381190Y-11715476D01*
X13362143Y-11705952D01*
X13352619Y-11686905D01*
X13352619Y-11667857D01*
X13362143Y-11648809D01*
X13381190Y-11639286D01*
X13428809Y-11639286D01*
X13447857Y-11629762D01*
X13543095Y-11582143D02*
X13543095Y-11782143D01*
X13543095Y-11591667D02*
X13562143Y-11582143D01*
X13600238Y-11582143D01*
X13619286Y-11591667D01*
X13628809Y-11601190D01*
X13638333Y-11620238D01*
X13638333Y-11677381D01*
X13628809Y-11696428D01*
X13619286Y-11705952D01*
X13600238Y-11715476D01*
X13562143Y-11715476D01*
X13543095Y-11705952D01*
X13724048Y-11696428D02*
X13733571Y-11705952D01*
X13724048Y-11715476D01*
X13714524Y-11705952D01*
X13724048Y-11696428D01*
X13724048Y-11715476D01*
X13724048Y-11591667D02*
X13733571Y-11601190D01*
X13724048Y-11610714D01*
X13714524Y-11601190D01*
X13724048Y-11591667D01*
X13724048Y-11610714D01*
M02*
