M48
; DRILL file {KiCad (6.0.10)} date Mon May  8 16:14:49 2023
; FORMAT={-:-/ absolute / metric / decimal}
; #@! TF.CreationDate,2023-05-08T16:14:49+03:00
; #@! TF.GenerationSoftware,Kicad,Pcbnew,(6.0.10)
; #@! TF.FileFunction,Plated,1,2,PTH
FMAT,2
METRIC
; #@! TA.AperFunction,Plated,PTH,ViaDrill
T1C0.400
; #@! TA.AperFunction,Plated,PTH,ComponentDrill
T2C1.000
; #@! TA.AperFunction,Plated,PTH,ComponentDrill
T3C1.092
; #@! TA.AperFunction,Plated,PTH,ComponentDrill
T4C3.200
%
G90
G05
T1
X132.5Y-101.0
X139.0Y-101.0
X142.0Y-98.5
X142.5Y-103.5
T2
X131.025Y-112.0
X131.06Y-90.0
X133.565Y-112.0
X133.6Y-90.0
X136.105Y-112.0
X136.14Y-90.0
X138.645Y-112.0
X138.68Y-90.0
X141.185Y-112.0
X141.22Y-90.0
X143.76Y-90.0
X146.3Y-90.0
X148.84Y-90.0
X151.37Y-111.955
X151.38Y-90.0
X153.91Y-111.955
X153.92Y-90.0
X156.45Y-111.955
X156.46Y-90.0
X158.99Y-111.955
X159.0Y-90.0
T3
X131.03Y-93.38
X131.03Y-108.62
X133.57Y-93.38
X133.57Y-108.62
X136.11Y-93.38
X136.11Y-108.62
X138.65Y-93.38
X138.65Y-108.62
X141.19Y-93.38
X141.19Y-108.62
X143.73Y-93.38
X143.73Y-108.62
X146.27Y-93.38
X146.27Y-108.62
X148.81Y-93.38
X148.81Y-108.62
X151.35Y-93.38
X151.35Y-108.62
X153.89Y-93.38
X153.89Y-108.62
X156.43Y-93.38
X156.43Y-108.62
X158.97Y-93.38
X158.97Y-108.62
T4
X125.0Y-92.0
X125.0Y-110.0
X159.0Y-101.0
T0
M30
