G04 #@! TF.GenerationSoftware,KiCad,Pcbnew,(6.0.10)*
G04 #@! TF.CreationDate,2023-05-08T16:14:21+03:00*
G04 #@! TF.ProjectId,trinteract,7472696e-7465-4726-9163-742e6b696361,rev?*
G04 #@! TF.SameCoordinates,Original*
G04 #@! TF.FileFunction,Legend,Top*
G04 #@! TF.FilePolarity,Positive*
%FSLAX46Y46*%
G04 Gerber Fmt 4.6, Leading zero omitted, Abs format (unit mm)*
G04 Created by KiCad (PCBNEW (6.0.10)) date 2023-05-08 16:14:21*
%MOMM*%
%LPD*%
G01*
G04 APERTURE LIST*
G04 Aperture macros list*
%AMRoundRect*
0 Rectangle with rounded corners*
0 $1 Rounding radius*
0 $2 $3 $4 $5 $6 $7 $8 $9 X,Y pos of 4 corners*
0 Add a 4 corners polygon primitive as box body*
4,1,4,$2,$3,$4,$5,$6,$7,$8,$9,$2,$3,0*
0 Add four circle primitives for the rounded corners*
1,1,$1+$1,$2,$3*
1,1,$1+$1,$4,$5*
1,1,$1+$1,$6,$7*
1,1,$1+$1,$8,$9*
0 Add four rect primitives between the rounded corners*
20,1,$1+$1,$2,$3,$4,$5,0*
20,1,$1+$1,$4,$5,$6,$7,0*
20,1,$1+$1,$6,$7,$8,$9,0*
20,1,$1+$1,$8,$9,$2,$3,0*%
G04 Aperture macros list end*
%ADD10C,0.300000*%
%ADD11C,0.150000*%
%ADD12C,0.200000*%
%ADD13C,0.120000*%
%ADD14R,1.600000X1.500000*%
%ADD15C,5.600000*%
%ADD16RoundRect,0.250000X0.350000X0.450000X-0.350000X0.450000X-0.350000X-0.450000X0.350000X-0.450000X0*%
%ADD17RoundRect,0.250000X-0.450000X0.350000X-0.450000X-0.350000X0.450000X-0.350000X0.450000X0.350000X0*%
%ADD18R,0.507200X0.794499*%
%ADD19RoundRect,0.250000X-0.475000X0.337500X-0.475000X-0.337500X0.475000X-0.337500X0.475000X0.337500X0*%
%ADD20C,1.752600*%
%ADD21R,1.700000X1.700000*%
%ADD22O,1.700000X1.700000*%
G04 APERTURE END LIST*
D10*
X144500000Y-101000000D02*
G75*
G03*
X144500000Y-101000000I-2500000J0D01*
G01*
X142000000Y-105000000D02*
X141500000Y-104500000D01*
X139500000Y-101000000D02*
X138000000Y-101000000D01*
X142000000Y-103500000D02*
X142000000Y-105000000D01*
X142000000Y-105000000D02*
X142500000Y-104500000D01*
X138000000Y-101000000D02*
X138500000Y-100500000D01*
X138000000Y-101000000D02*
X138500000Y-101500000D01*
D11*
X142000000Y-106226190D02*
X142000000Y-106702380D01*
X141666666Y-105702380D02*
X142000000Y-106226190D01*
X142333333Y-105702380D01*
X129547619Y-98452380D02*
X129547619Y-99023809D01*
X128547619Y-98738095D02*
X129547619Y-98738095D01*
X128547619Y-99833333D02*
X128547619Y-99357142D01*
X129547619Y-99357142D01*
X129547619Y-100023809D02*
X128547619Y-100357142D01*
X129547619Y-100690476D01*
X129214285Y-101452380D02*
X128547619Y-101452380D01*
X129595238Y-101214285D02*
X128880952Y-100976190D01*
X128880952Y-101595238D01*
X128547619Y-102023809D02*
X128547619Y-102214285D01*
X128595238Y-102309523D01*
X128642857Y-102357142D01*
X128785714Y-102452380D01*
X128976190Y-102500000D01*
X129357142Y-102500000D01*
X129452380Y-102452380D01*
X129500000Y-102404761D01*
X129547619Y-102309523D01*
X129547619Y-102119047D01*
X129500000Y-102023809D01*
X129452380Y-101976190D01*
X129357142Y-101928571D01*
X129119047Y-101928571D01*
X129023809Y-101976190D01*
X128976190Y-102023809D01*
X128928571Y-102119047D01*
X128928571Y-102309523D01*
X128976190Y-102404761D01*
X129023809Y-102452380D01*
X129119047Y-102500000D01*
X129547619Y-102833333D02*
X129547619Y-103452380D01*
X129166666Y-103119047D01*
X129166666Y-103261904D01*
X129119047Y-103357142D01*
X129071428Y-103404761D01*
X128976190Y-103452380D01*
X128738095Y-103452380D01*
X128642857Y-103404761D01*
X128595238Y-103357142D01*
X128547619Y-103261904D01*
X128547619Y-102976190D01*
X128595238Y-102880952D01*
X128642857Y-102833333D01*
X144166666Y-97952380D02*
X144833333Y-97952380D01*
X144166666Y-98952380D01*
X144833333Y-98952380D01*
X127547619Y-94571428D02*
X127547619Y-95190476D01*
X127166666Y-94857142D01*
X127166666Y-95000000D01*
X127119047Y-95095238D01*
X127071428Y-95142857D01*
X126976190Y-95190476D01*
X126738095Y-95190476D01*
X126642857Y-95142857D01*
X126595238Y-95095238D01*
X126547619Y-95000000D01*
X126547619Y-94714285D01*
X126595238Y-94619047D01*
X126642857Y-94571428D01*
X126547619Y-95619047D02*
X127547619Y-95619047D01*
X127547619Y-95857142D01*
X127500000Y-96000000D01*
X127404761Y-96095238D01*
X127309523Y-96142857D01*
X127119047Y-96190476D01*
X126976190Y-96190476D01*
X126785714Y-96142857D01*
X126690476Y-96095238D01*
X126595238Y-96000000D01*
X126547619Y-95857142D01*
X126547619Y-95619047D01*
X126547619Y-97380952D02*
X127547619Y-97380952D01*
X126833333Y-97714285D01*
X127547619Y-98047619D01*
X126547619Y-98047619D01*
X126547619Y-98952380D02*
X127071428Y-98952380D01*
X127166666Y-98904761D01*
X127214285Y-98809523D01*
X127214285Y-98619047D01*
X127166666Y-98523809D01*
X126595238Y-98952380D02*
X126547619Y-98857142D01*
X126547619Y-98619047D01*
X126595238Y-98523809D01*
X126690476Y-98476190D01*
X126785714Y-98476190D01*
X126880952Y-98523809D01*
X126928571Y-98619047D01*
X126928571Y-98857142D01*
X126976190Y-98952380D01*
X127214285Y-99857142D02*
X126404761Y-99857142D01*
X126309523Y-99809523D01*
X126261904Y-99761904D01*
X126214285Y-99666666D01*
X126214285Y-99523809D01*
X126261904Y-99428571D01*
X126595238Y-99857142D02*
X126547619Y-99761904D01*
X126547619Y-99571428D01*
X126595238Y-99476190D01*
X126642857Y-99428571D01*
X126738095Y-99380952D01*
X127023809Y-99380952D01*
X127119047Y-99428571D01*
X127166666Y-99476190D01*
X127214285Y-99571428D01*
X127214285Y-99761904D01*
X127166666Y-99857142D01*
X127214285Y-100333333D02*
X126547619Y-100333333D01*
X127119047Y-100333333D02*
X127166666Y-100380952D01*
X127214285Y-100476190D01*
X127214285Y-100619047D01*
X127166666Y-100714285D01*
X127071428Y-100761904D01*
X126547619Y-100761904D01*
X126595238Y-101619047D02*
X126547619Y-101523809D01*
X126547619Y-101333333D01*
X126595238Y-101238095D01*
X126690476Y-101190476D01*
X127071428Y-101190476D01*
X127166666Y-101238095D01*
X127214285Y-101333333D01*
X127214285Y-101523809D01*
X127166666Y-101619047D01*
X127071428Y-101666666D01*
X126976190Y-101666666D01*
X126880952Y-101190476D01*
X127214285Y-101952380D02*
X127214285Y-102333333D01*
X127547619Y-102095238D02*
X126690476Y-102095238D01*
X126595238Y-102142857D01*
X126547619Y-102238095D01*
X126547619Y-102333333D01*
X126547619Y-102809523D02*
X126595238Y-102714285D01*
X126642857Y-102666666D01*
X126738095Y-102619047D01*
X127023809Y-102619047D01*
X127119047Y-102666666D01*
X127166666Y-102714285D01*
X127214285Y-102809523D01*
X127214285Y-102952380D01*
X127166666Y-103047619D01*
X127119047Y-103095238D01*
X127023809Y-103142857D01*
X126738095Y-103142857D01*
X126642857Y-103095238D01*
X126595238Y-103047619D01*
X126547619Y-102952380D01*
X126547619Y-102809523D01*
X126547619Y-103571428D02*
X127214285Y-103571428D01*
X127119047Y-103571428D02*
X127166666Y-103619047D01*
X127214285Y-103714285D01*
X127214285Y-103857142D01*
X127166666Y-103952380D01*
X127071428Y-104000000D01*
X126547619Y-104000000D01*
X127071428Y-104000000D02*
X127166666Y-104047619D01*
X127214285Y-104142857D01*
X127214285Y-104285714D01*
X127166666Y-104380952D01*
X127071428Y-104428571D01*
X126547619Y-104428571D01*
X126595238Y-105285714D02*
X126547619Y-105190476D01*
X126547619Y-105000000D01*
X126595238Y-104904761D01*
X126690476Y-104857142D01*
X127071428Y-104857142D01*
X127166666Y-104904761D01*
X127214285Y-105000000D01*
X127214285Y-105190476D01*
X127166666Y-105285714D01*
X127071428Y-105333333D01*
X126976190Y-105333333D01*
X126880952Y-104857142D01*
X127214285Y-105619047D02*
X127214285Y-106000000D01*
X127547619Y-105761904D02*
X126690476Y-105761904D01*
X126595238Y-105809523D01*
X126547619Y-105904761D01*
X126547619Y-106000000D01*
X126595238Y-106714285D02*
X126547619Y-106619047D01*
X126547619Y-106428571D01*
X126595238Y-106333333D01*
X126690476Y-106285714D01*
X127071428Y-106285714D01*
X127166666Y-106333333D01*
X127214285Y-106428571D01*
X127214285Y-106619047D01*
X127166666Y-106714285D01*
X127071428Y-106761904D01*
X126976190Y-106761904D01*
X126880952Y-106285714D01*
X126547619Y-107190476D02*
X127214285Y-107190476D01*
X127023809Y-107190476D02*
X127119047Y-107238095D01*
X127166666Y-107285714D01*
X127214285Y-107380952D01*
X127214285Y-107476190D01*
X131214285Y-95666666D02*
X131214285Y-96047619D01*
X131547619Y-95809523D02*
X130690476Y-95809523D01*
X130595238Y-95857142D01*
X130547619Y-95952380D01*
X130547619Y-96047619D01*
X130547619Y-96380952D02*
X131214285Y-96380952D01*
X131023809Y-96380952D02*
X131119047Y-96428571D01*
X131166666Y-96476190D01*
X131214285Y-96571428D01*
X131214285Y-96666666D01*
X130547619Y-97000000D02*
X131214285Y-97000000D01*
X131547619Y-97000000D02*
X131500000Y-96952380D01*
X131452380Y-97000000D01*
X131500000Y-97047619D01*
X131547619Y-97000000D01*
X131452380Y-97000000D01*
X131214285Y-97476190D02*
X130547619Y-97476190D01*
X131119047Y-97476190D02*
X131166666Y-97523809D01*
X131214285Y-97619047D01*
X131214285Y-97761904D01*
X131166666Y-97857142D01*
X131071428Y-97904761D01*
X130547619Y-97904761D01*
X131214285Y-98238095D02*
X131214285Y-98619047D01*
X131547619Y-98380952D02*
X130690476Y-98380952D01*
X130595238Y-98428571D01*
X130547619Y-98523809D01*
X130547619Y-98619047D01*
X130595238Y-99333333D02*
X130547619Y-99238095D01*
X130547619Y-99047619D01*
X130595238Y-98952380D01*
X130690476Y-98904761D01*
X131071428Y-98904761D01*
X131166666Y-98952380D01*
X131214285Y-99047619D01*
X131214285Y-99238095D01*
X131166666Y-99333333D01*
X131071428Y-99380952D01*
X130976190Y-99380952D01*
X130880952Y-98904761D01*
X130547619Y-99809523D02*
X131214285Y-99809523D01*
X131023809Y-99809523D02*
X131119047Y-99857142D01*
X131166666Y-99904761D01*
X131214285Y-100000000D01*
X131214285Y-100095238D01*
X130547619Y-100857142D02*
X131071428Y-100857142D01*
X131166666Y-100809523D01*
X131214285Y-100714285D01*
X131214285Y-100523809D01*
X131166666Y-100428571D01*
X130595238Y-100857142D02*
X130547619Y-100761904D01*
X130547619Y-100523809D01*
X130595238Y-100428571D01*
X130690476Y-100380952D01*
X130785714Y-100380952D01*
X130880952Y-100428571D01*
X130928571Y-100523809D01*
X130928571Y-100761904D01*
X130976190Y-100857142D01*
X130595238Y-101761904D02*
X130547619Y-101666666D01*
X130547619Y-101476190D01*
X130595238Y-101380952D01*
X130642857Y-101333333D01*
X130738095Y-101285714D01*
X131023809Y-101285714D01*
X131119047Y-101333333D01*
X131166666Y-101380952D01*
X131214285Y-101476190D01*
X131214285Y-101666666D01*
X131166666Y-101761904D01*
X131214285Y-102047619D02*
X131214285Y-102428571D01*
X131547619Y-102190476D02*
X130690476Y-102190476D01*
X130595238Y-102238095D01*
X130547619Y-102333333D01*
X130547619Y-102428571D01*
X131214285Y-103428571D02*
X130547619Y-103666666D01*
X131214285Y-103904761D01*
X130547619Y-104809523D02*
X130547619Y-104238095D01*
X130547619Y-104523809D02*
X131547619Y-104523809D01*
X131404761Y-104428571D01*
X131309523Y-104333333D01*
X131261904Y-104238095D01*
X130642857Y-105238095D02*
X130595238Y-105285714D01*
X130547619Y-105238095D01*
X130595238Y-105190476D01*
X130642857Y-105238095D01*
X130547619Y-105238095D01*
X131452380Y-105666666D02*
X131500000Y-105714285D01*
X131547619Y-105809523D01*
X131547619Y-106047619D01*
X131500000Y-106142857D01*
X131452380Y-106190476D01*
X131357142Y-106238095D01*
X131261904Y-106238095D01*
X131119047Y-106190476D01*
X130547619Y-105619047D01*
X130547619Y-106238095D01*
X136666666Y-100452380D02*
X137333333Y-101452380D01*
X137333333Y-100452380D02*
X136666666Y-101452380D01*
G04 #@! TO.C,D1*
X154452380Y-101738095D02*
X153452380Y-101738095D01*
X153452380Y-101500000D01*
X153500000Y-101357142D01*
X153595238Y-101261904D01*
X153690476Y-101214285D01*
X153880952Y-101166666D01*
X154023809Y-101166666D01*
X154214285Y-101214285D01*
X154309523Y-101261904D01*
X154404761Y-101357142D01*
X154452380Y-101500000D01*
X154452380Y-101738095D01*
X154452380Y-100214285D02*
X154452380Y-100785714D01*
X154452380Y-100500000D02*
X153452380Y-100500000D01*
X153595238Y-100595238D01*
X153690476Y-100690476D01*
X153738095Y-100785714D01*
G04 #@! TO.C,R3*
X147333333Y-105602380D02*
X147000000Y-105126190D01*
X146761904Y-105602380D02*
X146761904Y-104602380D01*
X147142857Y-104602380D01*
X147238095Y-104650000D01*
X147285714Y-104697619D01*
X147333333Y-104792857D01*
X147333333Y-104935714D01*
X147285714Y-105030952D01*
X147238095Y-105078571D01*
X147142857Y-105126190D01*
X146761904Y-105126190D01*
X147666666Y-104602380D02*
X148285714Y-104602380D01*
X147952380Y-104983333D01*
X148095238Y-104983333D01*
X148190476Y-105030952D01*
X148238095Y-105078571D01*
X148285714Y-105173809D01*
X148285714Y-105411904D01*
X148238095Y-105507142D01*
X148190476Y-105554761D01*
X148095238Y-105602380D01*
X147809523Y-105602380D01*
X147714285Y-105554761D01*
X147666666Y-105507142D01*
G04 #@! TO.C,R1*
X147333333Y-100602380D02*
X147000000Y-100126190D01*
X146761904Y-100602380D02*
X146761904Y-99602380D01*
X147142857Y-99602380D01*
X147238095Y-99650000D01*
X147285714Y-99697619D01*
X147333333Y-99792857D01*
X147333333Y-99935714D01*
X147285714Y-100030952D01*
X147238095Y-100078571D01*
X147142857Y-100126190D01*
X146761904Y-100126190D01*
X148285714Y-100602380D02*
X147714285Y-100602380D01*
X148000000Y-100602380D02*
X148000000Y-99602380D01*
X147904761Y-99745238D01*
X147809523Y-99840476D01*
X147714285Y-99888095D01*
G04 #@! TO.C,R2*
X149952380Y-101166666D02*
X149476190Y-101500000D01*
X149952380Y-101738095D02*
X148952380Y-101738095D01*
X148952380Y-101357142D01*
X149000000Y-101261904D01*
X149047619Y-101214285D01*
X149142857Y-101166666D01*
X149285714Y-101166666D01*
X149380952Y-101214285D01*
X149428571Y-101261904D01*
X149476190Y-101357142D01*
X149476190Y-101738095D01*
X149047619Y-100785714D02*
X149000000Y-100738095D01*
X148952380Y-100642857D01*
X148952380Y-100404761D01*
X149000000Y-100309523D01*
X149047619Y-100261904D01*
X149142857Y-100214285D01*
X149238095Y-100214285D01*
X149380952Y-100261904D01*
X149952380Y-100833333D01*
X149952380Y-100214285D01*
G04 #@! TO.C,U1*
X141452380Y-101761904D02*
X142261904Y-101761904D01*
X142357142Y-101714285D01*
X142404761Y-101666666D01*
X142452380Y-101571428D01*
X142452380Y-101380952D01*
X142404761Y-101285714D01*
X142357142Y-101238095D01*
X142261904Y-101190476D01*
X141452380Y-101190476D01*
X142452380Y-100190476D02*
X142452380Y-100761904D01*
X142452380Y-100476190D02*
X141452380Y-100476190D01*
X141595238Y-100571428D01*
X141690476Y-100666666D01*
X141738095Y-100761904D01*
G04 #@! TO.C,C1*
X133122142Y-101166666D02*
X133169761Y-101214285D01*
X133217380Y-101357142D01*
X133217380Y-101452380D01*
X133169761Y-101595238D01*
X133074523Y-101690476D01*
X132979285Y-101738095D01*
X132788809Y-101785714D01*
X132645952Y-101785714D01*
X132455476Y-101738095D01*
X132360238Y-101690476D01*
X132265000Y-101595238D01*
X132217380Y-101452380D01*
X132217380Y-101357142D01*
X132265000Y-101214285D01*
X132312619Y-101166666D01*
X133217380Y-100214285D02*
X133217380Y-100785714D01*
X133217380Y-100500000D02*
X132217380Y-100500000D01*
X132360238Y-100595238D01*
X132455476Y-100690476D01*
X132503095Y-100785714D01*
D12*
G04 #@! TO.C,D1*
X154000000Y-104700000D02*
X154000000Y-104700000D01*
X154000000Y-104600000D02*
X154000000Y-104600000D01*
X154000000Y-104700000D02*
X154000000Y-104700000D01*
X154000000Y-104600000D02*
G75*
G03*
X154000000Y-104700000I0J-50000D01*
G01*
X154000000Y-104700000D02*
G75*
G03*
X154000000Y-104600000I0J50000D01*
G01*
X154000000Y-104700000D02*
G75*
G03*
X154000000Y-104600000I0J50000D01*
G01*
D13*
G04 #@! TO.C,R3*
X147727064Y-104235000D02*
X147272936Y-104235000D01*
X147727064Y-102765000D02*
X147272936Y-102765000D01*
G04 #@! TO.C,R1*
X147727064Y-99235000D02*
X147272936Y-99235000D01*
X147727064Y-97765000D02*
X147272936Y-97765000D01*
G04 #@! TO.C,R2*
X150265000Y-100772936D02*
X150265000Y-101227064D01*
X151735000Y-100772936D02*
X151735000Y-101227064D01*
G04 #@! TO.C,C1*
X135500000Y-100738748D02*
X135500000Y-101261252D01*
X134030000Y-100738748D02*
X134030000Y-101261252D01*
G04 #@! TD*
%LPC*%
D14*
G04 #@! TO.C,D1*
X154000000Y-102750000D03*
X154000000Y-99250000D03*
G04 #@! TD*
D15*
G04 #@! TO.C,H3*
X159000000Y-101000000D03*
G04 #@! TD*
D16*
G04 #@! TO.C,R3*
X148500000Y-103500000D03*
X146500000Y-103500000D03*
G04 #@! TD*
D15*
G04 #@! TO.C,H1*
X125000000Y-92000000D03*
G04 #@! TD*
D16*
G04 #@! TO.C,R1*
X148500000Y-98500000D03*
X146500000Y-98500000D03*
G04 #@! TD*
D15*
G04 #@! TO.C,H2*
X125000000Y-110000000D03*
G04 #@! TD*
D17*
G04 #@! TO.C,R2*
X151000000Y-100000000D03*
X151000000Y-102000000D03*
G04 #@! TD*
D18*
G04 #@! TO.C,U1*
X141049999Y-102248151D03*
X142000000Y-102248151D03*
X142950001Y-102248151D03*
X142950001Y-99751849D03*
X142000000Y-99751849D03*
X141049999Y-99751849D03*
G04 #@! TD*
D19*
G04 #@! TO.C,C1*
X134765000Y-99962500D03*
X134765000Y-102037500D03*
G04 #@! TD*
D20*
G04 #@! TO.C,U2*
X158970000Y-108620000D03*
X156430000Y-108620000D03*
X153890000Y-108620000D03*
X151350000Y-108620000D03*
X148810000Y-108620000D03*
X146270000Y-108620000D03*
X143730000Y-108620000D03*
X141190000Y-108620000D03*
X138650000Y-108620000D03*
X136110000Y-108620000D03*
X133570000Y-108620000D03*
X131030000Y-108620000D03*
X131030000Y-93380000D03*
X133570000Y-93380000D03*
X136110000Y-93380000D03*
X138650000Y-93380000D03*
X141190000Y-93380000D03*
X143730000Y-93380000D03*
X146270000Y-93380000D03*
X148810000Y-93380000D03*
X151350000Y-93380000D03*
X153890000Y-93380000D03*
X156430000Y-93380000D03*
X158970000Y-93380000D03*
G04 #@! TD*
D21*
G04 #@! TO.C,J3*
X151370000Y-111955000D03*
D22*
X153910000Y-111955000D03*
X156450000Y-111955000D03*
X158990000Y-111955000D03*
G04 #@! TD*
D21*
G04 #@! TO.C,J1*
X159000000Y-90000000D03*
D22*
X156460000Y-90000000D03*
X153920000Y-90000000D03*
X151380000Y-90000000D03*
X148840000Y-90000000D03*
X146300000Y-90000000D03*
X143760000Y-90000000D03*
X141220000Y-90000000D03*
X138680000Y-90000000D03*
X136140000Y-90000000D03*
X133600000Y-90000000D03*
X131060000Y-90000000D03*
G04 #@! TD*
D21*
G04 #@! TO.C,J2*
X131025000Y-112000000D03*
D22*
X133565000Y-112000000D03*
X136105000Y-112000000D03*
X138645000Y-112000000D03*
X141185000Y-112000000D03*
G04 #@! TD*
M02*
