%TF.GenerationSoftware,KiCad,Pcbnew,(6.0.10)*%
%TF.CreationDate,2023-05-08T16:14:59+03:00*%
%TF.ProjectId,trinteract,7472696e-7465-4726-9163-742e6b696361,rev?*%
%TF.SameCoordinates,Original*%
%TF.FileFunction,Drillmap*%
%TF.FilePolarity,Positive*%
%FSLAX45Y45*%
G04 Gerber Fmt 4.5, Leading zero omitted, Abs format (unit mm)*
G04 Created by KiCad (PCBNEW (6.0.10)) date 2023-05-08 16:14:59*
%MOMM*%
%LPD*%
G01*
G04 APERTURE LIST*
%ADD10C,0.100000*%
%ADD11C,0.200000*%
%ADD12C,0.040000*%
%ADD13C,0.109220*%
%ADD14C,0.320000*%
G04 APERTURE END LIST*
D10*
X12500000Y-8800000D02*
X15900000Y-8800000D01*
X16300000Y-9200000D02*
X16300000Y-11000000D01*
X15900000Y-11400000D02*
G75*
G03*
X16300000Y-11000000I0J400000D01*
G01*
X12100000Y-9200000D02*
X12100000Y-11000000D01*
X16300000Y-9200000D02*
G75*
G03*
X15900000Y-8800000I-400000J0D01*
G01*
X12100000Y-11000000D02*
G75*
G03*
X12500000Y-11400000I400000J0D01*
G01*
X12500000Y-8800000D02*
G75*
G03*
X12100000Y-9200000I0J-400000D01*
G01*
X12500000Y-11400000D02*
X15900000Y-11400000D01*
D11*
D12*
X13230000Y-10080000D02*
X13270000Y-10120000D01*
X13270000Y-10080000D02*
X13230000Y-10120000D01*
X13880000Y-10080000D02*
X13920000Y-10120000D01*
X13920000Y-10080000D02*
X13880000Y-10120000D01*
X14180000Y-9830000D02*
X14220000Y-9870000D01*
X14220000Y-9830000D02*
X14180000Y-9870000D01*
X14230000Y-10330000D02*
X14270000Y-10370000D01*
X14270000Y-10330000D02*
X14230000Y-10370000D01*
D10*
X13152500Y-11200000D02*
G75*
G03*
X13152500Y-11200000I-50000J0D01*
G01*
X13156000Y-9000000D02*
G75*
G03*
X13156000Y-9000000I-50000J0D01*
G01*
X13406500Y-11200000D02*
G75*
G03*
X13406500Y-11200000I-50000J0D01*
G01*
X13410000Y-9000000D02*
G75*
G03*
X13410000Y-9000000I-50000J0D01*
G01*
X13660500Y-11200000D02*
G75*
G03*
X13660500Y-11200000I-50000J0D01*
G01*
X13664000Y-9000000D02*
G75*
G03*
X13664000Y-9000000I-50000J0D01*
G01*
X13914500Y-11200000D02*
G75*
G03*
X13914500Y-11200000I-50000J0D01*
G01*
X13918000Y-9000000D02*
G75*
G03*
X13918000Y-9000000I-50000J0D01*
G01*
X14168500Y-11200000D02*
G75*
G03*
X14168500Y-11200000I-50000J0D01*
G01*
X14172000Y-9000000D02*
G75*
G03*
X14172000Y-9000000I-50000J0D01*
G01*
X14426000Y-9000000D02*
G75*
G03*
X14426000Y-9000000I-50000J0D01*
G01*
X14680000Y-9000000D02*
G75*
G03*
X14680000Y-9000000I-50000J0D01*
G01*
X14934000Y-9000000D02*
G75*
G03*
X14934000Y-9000000I-50000J0D01*
G01*
X15187000Y-11195500D02*
G75*
G03*
X15187000Y-11195500I-50000J0D01*
G01*
X15188000Y-9000000D02*
G75*
G03*
X15188000Y-9000000I-50000J0D01*
G01*
X15441000Y-11195500D02*
G75*
G03*
X15441000Y-11195500I-50000J0D01*
G01*
X15442000Y-9000000D02*
G75*
G03*
X15442000Y-9000000I-50000J0D01*
G01*
X15695000Y-11195500D02*
G75*
G03*
X15695000Y-11195500I-50000J0D01*
G01*
X15696000Y-9000000D02*
G75*
G03*
X15696000Y-9000000I-50000J0D01*
G01*
X15949000Y-11195500D02*
G75*
G03*
X15949000Y-11195500I-50000J0D01*
G01*
X15950000Y-9000000D02*
G75*
G03*
X15950000Y-9000000I-50000J0D01*
G01*
D13*
X13103000Y-9283390D02*
X13103000Y-9392610D01*
X13048390Y-9338000D02*
X13157610Y-9338000D01*
X13103000Y-10807390D02*
X13103000Y-10916610D01*
X13048390Y-10862000D02*
X13157610Y-10862000D01*
X13357000Y-9283390D02*
X13357000Y-9392610D01*
X13302390Y-9338000D02*
X13411610Y-9338000D01*
X13357000Y-10807390D02*
X13357000Y-10916610D01*
X13302390Y-10862000D02*
X13411610Y-10862000D01*
X13611000Y-9283390D02*
X13611000Y-9392610D01*
X13556390Y-9338000D02*
X13665610Y-9338000D01*
X13611000Y-10807390D02*
X13611000Y-10916610D01*
X13556390Y-10862000D02*
X13665610Y-10862000D01*
X13865000Y-9283390D02*
X13865000Y-9392610D01*
X13810390Y-9338000D02*
X13919610Y-9338000D01*
X13865000Y-10807390D02*
X13865000Y-10916610D01*
X13810390Y-10862000D02*
X13919610Y-10862000D01*
X14119000Y-9283390D02*
X14119000Y-9392610D01*
X14064390Y-9338000D02*
X14173610Y-9338000D01*
X14119000Y-10807390D02*
X14119000Y-10916610D01*
X14064390Y-10862000D02*
X14173610Y-10862000D01*
X14373000Y-9283390D02*
X14373000Y-9392610D01*
X14318390Y-9338000D02*
X14427610Y-9338000D01*
X14373000Y-10807390D02*
X14373000Y-10916610D01*
X14318390Y-10862000D02*
X14427610Y-10862000D01*
X14627000Y-9283390D02*
X14627000Y-9392610D01*
X14572390Y-9338000D02*
X14681610Y-9338000D01*
X14627000Y-10807390D02*
X14627000Y-10916610D01*
X14572390Y-10862000D02*
X14681610Y-10862000D01*
X14881000Y-9283390D02*
X14881000Y-9392610D01*
X14826390Y-9338000D02*
X14935610Y-9338000D01*
X14881000Y-10807390D02*
X14881000Y-10916610D01*
X14826390Y-10862000D02*
X14935610Y-10862000D01*
X15135000Y-9283390D02*
X15135000Y-9392610D01*
X15080390Y-9338000D02*
X15189610Y-9338000D01*
X15135000Y-10807390D02*
X15135000Y-10916610D01*
X15080390Y-10862000D02*
X15189610Y-10862000D01*
X15389000Y-9283390D02*
X15389000Y-9392610D01*
X15334390Y-9338000D02*
X15443610Y-9338000D01*
X15389000Y-10807390D02*
X15389000Y-10916610D01*
X15334390Y-10862000D02*
X15443610Y-10862000D01*
X15643000Y-9283390D02*
X15643000Y-9392610D01*
X15588390Y-9338000D02*
X15697610Y-9338000D01*
X15643000Y-10807390D02*
X15643000Y-10916610D01*
X15588390Y-10862000D02*
X15697610Y-10862000D01*
X15897000Y-9283390D02*
X15897000Y-9392610D01*
X15842390Y-9338000D02*
X15951610Y-9338000D01*
X15897000Y-10807390D02*
X15897000Y-10916610D01*
X15842390Y-10862000D02*
X15951610Y-10862000D01*
D14*
X12613138Y-9313138D02*
X12613138Y-9086862D01*
X12386862Y-9086862D01*
X12386862Y-9313138D01*
X12613138Y-9313138D01*
X12613138Y-11113138D02*
X12613138Y-10886862D01*
X12386862Y-10886862D01*
X12386862Y-11113138D01*
X12613138Y-11113138D01*
X16013138Y-10213138D02*
X16013138Y-9986862D01*
X15786862Y-9986862D01*
X15786862Y-10213138D01*
X16013138Y-10213138D01*
D11*
X12352619Y-11715476D02*
X12352619Y-11515476D01*
X12400238Y-11515476D01*
X12428809Y-11525000D01*
X12447857Y-11544048D01*
X12457381Y-11563095D01*
X12466905Y-11601190D01*
X12466905Y-11629762D01*
X12457381Y-11667857D01*
X12447857Y-11686905D01*
X12428809Y-11705952D01*
X12400238Y-11715476D01*
X12352619Y-11715476D01*
X12552619Y-11715476D02*
X12552619Y-11582143D01*
X12552619Y-11620238D02*
X12562143Y-11601190D01*
X12571667Y-11591667D01*
X12590714Y-11582143D01*
X12609762Y-11582143D01*
X12676428Y-11715476D02*
X12676428Y-11582143D01*
X12676428Y-11515476D02*
X12666905Y-11525000D01*
X12676428Y-11534524D01*
X12685952Y-11525000D01*
X12676428Y-11515476D01*
X12676428Y-11534524D01*
X12800238Y-11715476D02*
X12781190Y-11705952D01*
X12771667Y-11686905D01*
X12771667Y-11515476D01*
X12905000Y-11715476D02*
X12885952Y-11705952D01*
X12876428Y-11686905D01*
X12876428Y-11515476D01*
X13133571Y-11715476D02*
X13133571Y-11515476D01*
X13200238Y-11658333D01*
X13266905Y-11515476D01*
X13266905Y-11715476D01*
X13447857Y-11715476D02*
X13447857Y-11610714D01*
X13438333Y-11591667D01*
X13419286Y-11582143D01*
X13381190Y-11582143D01*
X13362143Y-11591667D01*
X13447857Y-11705952D02*
X13428809Y-11715476D01*
X13381190Y-11715476D01*
X13362143Y-11705952D01*
X13352619Y-11686905D01*
X13352619Y-11667857D01*
X13362143Y-11648809D01*
X13381190Y-11639286D01*
X13428809Y-11639286D01*
X13447857Y-11629762D01*
X13543095Y-11582143D02*
X13543095Y-11782143D01*
X13543095Y-11591667D02*
X13562143Y-11582143D01*
X13600238Y-11582143D01*
X13619286Y-11591667D01*
X13628809Y-11601190D01*
X13638333Y-11620238D01*
X13638333Y-11677381D01*
X13628809Y-11696428D01*
X13619286Y-11705952D01*
X13600238Y-11715476D01*
X13562143Y-11715476D01*
X13543095Y-11705952D01*
X13724048Y-11696428D02*
X13733571Y-11705952D01*
X13724048Y-11715476D01*
X13714524Y-11705952D01*
X13724048Y-11696428D01*
X13724048Y-11715476D01*
X13724048Y-11591667D02*
X13733571Y-11601190D01*
X13724048Y-11610714D01*
X13714524Y-11601190D01*
X13724048Y-11591667D01*
X13724048Y-11610714D01*
D12*
X12055000Y-12025000D02*
X12095000Y-12065000D01*
X12095000Y-12025000D02*
X12055000Y-12065000D01*
D11*
X12390714Y-11935476D02*
X12409762Y-11935476D01*
X12428809Y-11945000D01*
X12438333Y-11954524D01*
X12447857Y-11973571D01*
X12457381Y-12011667D01*
X12457381Y-12059286D01*
X12447857Y-12097381D01*
X12438333Y-12116428D01*
X12428809Y-12125952D01*
X12409762Y-12135476D01*
X12390714Y-12135476D01*
X12371667Y-12125952D01*
X12362143Y-12116428D01*
X12352619Y-12097381D01*
X12343095Y-12059286D01*
X12343095Y-12011667D01*
X12352619Y-11973571D01*
X12362143Y-11954524D01*
X12371667Y-11945000D01*
X12390714Y-11935476D01*
X12543095Y-12116428D02*
X12552619Y-12125952D01*
X12543095Y-12135476D01*
X12533571Y-12125952D01*
X12543095Y-12116428D01*
X12543095Y-12135476D01*
X12724048Y-12002143D02*
X12724048Y-12135476D01*
X12676428Y-11925952D02*
X12628809Y-12068809D01*
X12752619Y-12068809D01*
X12866905Y-11935476D02*
X12885952Y-11935476D01*
X12905000Y-11945000D01*
X12914524Y-11954524D01*
X12924048Y-11973571D01*
X12933571Y-12011667D01*
X12933571Y-12059286D01*
X12924048Y-12097381D01*
X12914524Y-12116428D01*
X12905000Y-12125952D01*
X12885952Y-12135476D01*
X12866905Y-12135476D01*
X12847857Y-12125952D01*
X12838333Y-12116428D01*
X12828809Y-12097381D01*
X12819286Y-12059286D01*
X12819286Y-12011667D01*
X12828809Y-11973571D01*
X12838333Y-11954524D01*
X12847857Y-11945000D01*
X12866905Y-11935476D01*
X13057381Y-11935476D02*
X13076428Y-11935476D01*
X13095476Y-11945000D01*
X13105000Y-11954524D01*
X13114524Y-11973571D01*
X13124048Y-12011667D01*
X13124048Y-12059286D01*
X13114524Y-12097381D01*
X13105000Y-12116428D01*
X13095476Y-12125952D01*
X13076428Y-12135476D01*
X13057381Y-12135476D01*
X13038333Y-12125952D01*
X13028809Y-12116428D01*
X13019286Y-12097381D01*
X13009762Y-12059286D01*
X13009762Y-12011667D01*
X13019286Y-11973571D01*
X13028809Y-11954524D01*
X13038333Y-11945000D01*
X13057381Y-11935476D01*
X13209762Y-12135476D02*
X13209762Y-12002143D01*
X13209762Y-12021190D02*
X13219286Y-12011667D01*
X13238333Y-12002143D01*
X13266905Y-12002143D01*
X13285952Y-12011667D01*
X13295476Y-12030714D01*
X13295476Y-12135476D01*
X13295476Y-12030714D02*
X13305000Y-12011667D01*
X13324048Y-12002143D01*
X13352619Y-12002143D01*
X13371667Y-12011667D01*
X13381190Y-12030714D01*
X13381190Y-12135476D01*
X13476428Y-12135476D02*
X13476428Y-12002143D01*
X13476428Y-12021190D02*
X13485952Y-12011667D01*
X13505000Y-12002143D01*
X13533571Y-12002143D01*
X13552619Y-12011667D01*
X13562143Y-12030714D01*
X13562143Y-12135476D01*
X13562143Y-12030714D02*
X13571667Y-12011667D01*
X13590714Y-12002143D01*
X13619286Y-12002143D01*
X13638333Y-12011667D01*
X13647857Y-12030714D01*
X13647857Y-12135476D01*
X14038333Y-11925952D02*
X13866905Y-12183095D01*
X14295476Y-11935476D02*
X14314524Y-11935476D01*
X14333571Y-11945000D01*
X14343095Y-11954524D01*
X14352619Y-11973571D01*
X14362143Y-12011667D01*
X14362143Y-12059286D01*
X14352619Y-12097381D01*
X14343095Y-12116428D01*
X14333571Y-12125952D01*
X14314524Y-12135476D01*
X14295476Y-12135476D01*
X14276428Y-12125952D01*
X14266905Y-12116428D01*
X14257381Y-12097381D01*
X14247857Y-12059286D01*
X14247857Y-12011667D01*
X14257381Y-11973571D01*
X14266905Y-11954524D01*
X14276428Y-11945000D01*
X14295476Y-11935476D01*
X14447857Y-12116428D02*
X14457381Y-12125952D01*
X14447857Y-12135476D01*
X14438333Y-12125952D01*
X14447857Y-12116428D01*
X14447857Y-12135476D01*
X14581190Y-11935476D02*
X14600238Y-11935476D01*
X14619286Y-11945000D01*
X14628809Y-11954524D01*
X14638333Y-11973571D01*
X14647857Y-12011667D01*
X14647857Y-12059286D01*
X14638333Y-12097381D01*
X14628809Y-12116428D01*
X14619286Y-12125952D01*
X14600238Y-12135476D01*
X14581190Y-12135476D01*
X14562143Y-12125952D01*
X14552619Y-12116428D01*
X14543095Y-12097381D01*
X14533571Y-12059286D01*
X14533571Y-12011667D01*
X14543095Y-11973571D01*
X14552619Y-11954524D01*
X14562143Y-11945000D01*
X14581190Y-11935476D01*
X14838333Y-12135476D02*
X14724048Y-12135476D01*
X14781190Y-12135476D02*
X14781190Y-11935476D01*
X14762143Y-11964048D01*
X14743095Y-11983095D01*
X14724048Y-11992619D01*
X15019286Y-11935476D02*
X14924048Y-11935476D01*
X14914524Y-12030714D01*
X14924048Y-12021190D01*
X14943095Y-12011667D01*
X14990714Y-12011667D01*
X15009762Y-12021190D01*
X15019286Y-12030714D01*
X15028809Y-12049762D01*
X15028809Y-12097381D01*
X15019286Y-12116428D01*
X15009762Y-12125952D01*
X14990714Y-12135476D01*
X14943095Y-12135476D01*
X14924048Y-12125952D01*
X14914524Y-12116428D01*
X15095476Y-11935476D02*
X15228809Y-11935476D01*
X15143095Y-12135476D01*
X15295476Y-11935476D02*
X15295476Y-11973571D01*
X15371667Y-11935476D02*
X15371667Y-11973571D01*
X15666905Y-12211667D02*
X15657381Y-12202143D01*
X15638333Y-12173571D01*
X15628809Y-12154524D01*
X15619286Y-12125952D01*
X15609762Y-12078333D01*
X15609762Y-12040238D01*
X15619286Y-11992619D01*
X15628809Y-11964048D01*
X15638333Y-11945000D01*
X15657381Y-11916428D01*
X15666905Y-11906905D01*
X15828809Y-12002143D02*
X15828809Y-12135476D01*
X15781190Y-11925952D02*
X15733571Y-12068809D01*
X15857381Y-12068809D01*
X16085952Y-12135476D02*
X16085952Y-11935476D01*
X16171667Y-12135476D02*
X16171667Y-12030714D01*
X16162143Y-12011667D01*
X16143095Y-12002143D01*
X16114524Y-12002143D01*
X16095476Y-12011667D01*
X16085952Y-12021190D01*
X16295476Y-12135476D02*
X16276428Y-12125952D01*
X16266905Y-12116428D01*
X16257381Y-12097381D01*
X16257381Y-12040238D01*
X16266905Y-12021190D01*
X16276428Y-12011667D01*
X16295476Y-12002143D01*
X16324048Y-12002143D01*
X16343095Y-12011667D01*
X16352619Y-12021190D01*
X16362143Y-12040238D01*
X16362143Y-12097381D01*
X16352619Y-12116428D01*
X16343095Y-12125952D01*
X16324048Y-12135476D01*
X16295476Y-12135476D01*
X16476428Y-12135476D02*
X16457381Y-12125952D01*
X16447857Y-12106905D01*
X16447857Y-11935476D01*
X16628809Y-12125952D02*
X16609762Y-12135476D01*
X16571667Y-12135476D01*
X16552619Y-12125952D01*
X16543095Y-12106905D01*
X16543095Y-12030714D01*
X16552619Y-12011667D01*
X16571667Y-12002143D01*
X16609762Y-12002143D01*
X16628809Y-12011667D01*
X16638333Y-12030714D01*
X16638333Y-12049762D01*
X16543095Y-12068809D01*
X16714524Y-12125952D02*
X16733571Y-12135476D01*
X16771667Y-12135476D01*
X16790714Y-12125952D01*
X16800238Y-12106905D01*
X16800238Y-12097381D01*
X16790714Y-12078333D01*
X16771667Y-12068809D01*
X16743095Y-12068809D01*
X16724048Y-12059286D01*
X16714524Y-12040238D01*
X16714524Y-12030714D01*
X16724048Y-12011667D01*
X16743095Y-12002143D01*
X16771667Y-12002143D01*
X16790714Y-12011667D01*
X16866905Y-12211667D02*
X16876429Y-12202143D01*
X16895476Y-12173571D01*
X16905000Y-12154524D01*
X16914524Y-12125952D01*
X16924048Y-12078333D01*
X16924048Y-12040238D01*
X16914524Y-11992619D01*
X16905000Y-11964048D01*
X16895476Y-11945000D01*
X16876429Y-11916428D01*
X16866905Y-11906905D01*
D10*
X12095000Y-12309000D02*
G75*
G03*
X12095000Y-12309000I-50000J0D01*
G01*
D11*
X12457381Y-12399476D02*
X12343095Y-12399476D01*
X12400238Y-12399476D02*
X12400238Y-12199476D01*
X12381190Y-12228048D01*
X12362143Y-12247095D01*
X12343095Y-12256619D01*
X12543095Y-12380428D02*
X12552619Y-12389952D01*
X12543095Y-12399476D01*
X12533571Y-12389952D01*
X12543095Y-12380428D01*
X12543095Y-12399476D01*
X12676428Y-12199476D02*
X12695476Y-12199476D01*
X12714524Y-12209000D01*
X12724048Y-12218524D01*
X12733571Y-12237571D01*
X12743095Y-12275667D01*
X12743095Y-12323286D01*
X12733571Y-12361381D01*
X12724048Y-12380428D01*
X12714524Y-12389952D01*
X12695476Y-12399476D01*
X12676428Y-12399476D01*
X12657381Y-12389952D01*
X12647857Y-12380428D01*
X12638333Y-12361381D01*
X12628809Y-12323286D01*
X12628809Y-12275667D01*
X12638333Y-12237571D01*
X12647857Y-12218524D01*
X12657381Y-12209000D01*
X12676428Y-12199476D01*
X12866905Y-12199476D02*
X12885952Y-12199476D01*
X12905000Y-12209000D01*
X12914524Y-12218524D01*
X12924048Y-12237571D01*
X12933571Y-12275667D01*
X12933571Y-12323286D01*
X12924048Y-12361381D01*
X12914524Y-12380428D01*
X12905000Y-12389952D01*
X12885952Y-12399476D01*
X12866905Y-12399476D01*
X12847857Y-12389952D01*
X12838333Y-12380428D01*
X12828809Y-12361381D01*
X12819286Y-12323286D01*
X12819286Y-12275667D01*
X12828809Y-12237571D01*
X12838333Y-12218524D01*
X12847857Y-12209000D01*
X12866905Y-12199476D01*
X13057381Y-12199476D02*
X13076428Y-12199476D01*
X13095476Y-12209000D01*
X13105000Y-12218524D01*
X13114524Y-12237571D01*
X13124048Y-12275667D01*
X13124048Y-12323286D01*
X13114524Y-12361381D01*
X13105000Y-12380428D01*
X13095476Y-12389952D01*
X13076428Y-12399476D01*
X13057381Y-12399476D01*
X13038333Y-12389952D01*
X13028809Y-12380428D01*
X13019286Y-12361381D01*
X13009762Y-12323286D01*
X13009762Y-12275667D01*
X13019286Y-12237571D01*
X13028809Y-12218524D01*
X13038333Y-12209000D01*
X13057381Y-12199476D01*
X13209762Y-12399476D02*
X13209762Y-12266143D01*
X13209762Y-12285190D02*
X13219286Y-12275667D01*
X13238333Y-12266143D01*
X13266905Y-12266143D01*
X13285952Y-12275667D01*
X13295476Y-12294714D01*
X13295476Y-12399476D01*
X13295476Y-12294714D02*
X13305000Y-12275667D01*
X13324048Y-12266143D01*
X13352619Y-12266143D01*
X13371667Y-12275667D01*
X13381190Y-12294714D01*
X13381190Y-12399476D01*
X13476428Y-12399476D02*
X13476428Y-12266143D01*
X13476428Y-12285190D02*
X13485952Y-12275667D01*
X13505000Y-12266143D01*
X13533571Y-12266143D01*
X13552619Y-12275667D01*
X13562143Y-12294714D01*
X13562143Y-12399476D01*
X13562143Y-12294714D02*
X13571667Y-12275667D01*
X13590714Y-12266143D01*
X13619286Y-12266143D01*
X13638333Y-12275667D01*
X13647857Y-12294714D01*
X13647857Y-12399476D01*
X14038333Y-12189952D02*
X13866905Y-12447095D01*
X14295476Y-12199476D02*
X14314524Y-12199476D01*
X14333571Y-12209000D01*
X14343095Y-12218524D01*
X14352619Y-12237571D01*
X14362143Y-12275667D01*
X14362143Y-12323286D01*
X14352619Y-12361381D01*
X14343095Y-12380428D01*
X14333571Y-12389952D01*
X14314524Y-12399476D01*
X14295476Y-12399476D01*
X14276428Y-12389952D01*
X14266905Y-12380428D01*
X14257381Y-12361381D01*
X14247857Y-12323286D01*
X14247857Y-12275667D01*
X14257381Y-12237571D01*
X14266905Y-12218524D01*
X14276428Y-12209000D01*
X14295476Y-12199476D01*
X14447857Y-12380428D02*
X14457381Y-12389952D01*
X14447857Y-12399476D01*
X14438333Y-12389952D01*
X14447857Y-12380428D01*
X14447857Y-12399476D01*
X14581190Y-12199476D02*
X14600238Y-12199476D01*
X14619286Y-12209000D01*
X14628809Y-12218524D01*
X14638333Y-12237571D01*
X14647857Y-12275667D01*
X14647857Y-12323286D01*
X14638333Y-12361381D01*
X14628809Y-12380428D01*
X14619286Y-12389952D01*
X14600238Y-12399476D01*
X14581190Y-12399476D01*
X14562143Y-12389952D01*
X14552619Y-12380428D01*
X14543095Y-12361381D01*
X14533571Y-12323286D01*
X14533571Y-12275667D01*
X14543095Y-12237571D01*
X14552619Y-12218524D01*
X14562143Y-12209000D01*
X14581190Y-12199476D01*
X14714524Y-12199476D02*
X14838333Y-12199476D01*
X14771667Y-12275667D01*
X14800238Y-12275667D01*
X14819286Y-12285190D01*
X14828809Y-12294714D01*
X14838333Y-12313762D01*
X14838333Y-12361381D01*
X14828809Y-12380428D01*
X14819286Y-12389952D01*
X14800238Y-12399476D01*
X14743095Y-12399476D01*
X14724048Y-12389952D01*
X14714524Y-12380428D01*
X14933571Y-12399476D02*
X14971667Y-12399476D01*
X14990714Y-12389952D01*
X15000238Y-12380428D01*
X15019286Y-12351857D01*
X15028809Y-12313762D01*
X15028809Y-12237571D01*
X15019286Y-12218524D01*
X15009762Y-12209000D01*
X14990714Y-12199476D01*
X14952619Y-12199476D01*
X14933571Y-12209000D01*
X14924048Y-12218524D01*
X14914524Y-12237571D01*
X14914524Y-12285190D01*
X14924048Y-12304238D01*
X14933571Y-12313762D01*
X14952619Y-12323286D01*
X14990714Y-12323286D01*
X15009762Y-12313762D01*
X15019286Y-12304238D01*
X15028809Y-12285190D01*
X15200238Y-12266143D02*
X15200238Y-12399476D01*
X15152619Y-12189952D02*
X15105000Y-12332809D01*
X15228809Y-12332809D01*
X15295476Y-12199476D02*
X15295476Y-12237571D01*
X15371667Y-12199476D02*
X15371667Y-12237571D01*
X15666905Y-12475667D02*
X15657381Y-12466143D01*
X15638333Y-12437571D01*
X15628809Y-12418524D01*
X15619286Y-12389952D01*
X15609762Y-12342333D01*
X15609762Y-12304238D01*
X15619286Y-12256619D01*
X15628809Y-12228048D01*
X15638333Y-12209000D01*
X15657381Y-12180428D01*
X15666905Y-12170905D01*
X15733571Y-12218524D02*
X15743095Y-12209000D01*
X15762143Y-12199476D01*
X15809762Y-12199476D01*
X15828809Y-12209000D01*
X15838333Y-12218524D01*
X15847857Y-12237571D01*
X15847857Y-12256619D01*
X15838333Y-12285190D01*
X15724048Y-12399476D01*
X15847857Y-12399476D01*
X16038333Y-12399476D02*
X15924048Y-12399476D01*
X15981190Y-12399476D02*
X15981190Y-12199476D01*
X15962143Y-12228048D01*
X15943095Y-12247095D01*
X15924048Y-12256619D01*
X16276428Y-12399476D02*
X16276428Y-12199476D01*
X16362143Y-12399476D02*
X16362143Y-12294714D01*
X16352619Y-12275667D01*
X16333571Y-12266143D01*
X16305000Y-12266143D01*
X16285952Y-12275667D01*
X16276428Y-12285190D01*
X16485952Y-12399476D02*
X16466905Y-12389952D01*
X16457381Y-12380428D01*
X16447857Y-12361381D01*
X16447857Y-12304238D01*
X16457381Y-12285190D01*
X16466905Y-12275667D01*
X16485952Y-12266143D01*
X16514524Y-12266143D01*
X16533571Y-12275667D01*
X16543095Y-12285190D01*
X16552619Y-12304238D01*
X16552619Y-12361381D01*
X16543095Y-12380428D01*
X16533571Y-12389952D01*
X16514524Y-12399476D01*
X16485952Y-12399476D01*
X16666905Y-12399476D02*
X16647857Y-12389952D01*
X16638333Y-12370905D01*
X16638333Y-12199476D01*
X16819286Y-12389952D02*
X16800238Y-12399476D01*
X16762143Y-12399476D01*
X16743095Y-12389952D01*
X16733571Y-12370905D01*
X16733571Y-12294714D01*
X16743095Y-12275667D01*
X16762143Y-12266143D01*
X16800238Y-12266143D01*
X16819286Y-12275667D01*
X16828810Y-12294714D01*
X16828810Y-12313762D01*
X16733571Y-12332809D01*
X16905000Y-12389952D02*
X16924048Y-12399476D01*
X16962143Y-12399476D01*
X16981190Y-12389952D01*
X16990714Y-12370905D01*
X16990714Y-12361381D01*
X16981190Y-12342333D01*
X16962143Y-12332809D01*
X16933571Y-12332809D01*
X16914524Y-12323286D01*
X16905000Y-12304238D01*
X16905000Y-12294714D01*
X16914524Y-12275667D01*
X16933571Y-12266143D01*
X16962143Y-12266143D01*
X16981190Y-12275667D01*
X17057381Y-12475667D02*
X17066905Y-12466143D01*
X17085952Y-12437571D01*
X17095476Y-12418524D01*
X17105000Y-12389952D01*
X17114524Y-12342333D01*
X17114524Y-12304238D01*
X17105000Y-12256619D01*
X17095476Y-12228048D01*
X17085952Y-12209000D01*
X17066905Y-12180428D01*
X17057381Y-12170905D01*
D13*
X12040390Y-12518390D02*
X12040390Y-12627610D01*
X11985780Y-12573000D02*
X12095000Y-12573000D01*
D11*
X12457381Y-12663476D02*
X12343095Y-12663476D01*
X12400238Y-12663476D02*
X12400238Y-12463476D01*
X12381190Y-12492048D01*
X12362143Y-12511095D01*
X12343095Y-12520619D01*
X12543095Y-12644428D02*
X12552619Y-12653952D01*
X12543095Y-12663476D01*
X12533571Y-12653952D01*
X12543095Y-12644428D01*
X12543095Y-12663476D01*
X12676428Y-12463476D02*
X12695476Y-12463476D01*
X12714524Y-12473000D01*
X12724048Y-12482524D01*
X12733571Y-12501571D01*
X12743095Y-12539667D01*
X12743095Y-12587286D01*
X12733571Y-12625381D01*
X12724048Y-12644428D01*
X12714524Y-12653952D01*
X12695476Y-12663476D01*
X12676428Y-12663476D01*
X12657381Y-12653952D01*
X12647857Y-12644428D01*
X12638333Y-12625381D01*
X12628809Y-12587286D01*
X12628809Y-12539667D01*
X12638333Y-12501571D01*
X12647857Y-12482524D01*
X12657381Y-12473000D01*
X12676428Y-12463476D01*
X12838333Y-12663476D02*
X12876428Y-12663476D01*
X12895476Y-12653952D01*
X12905000Y-12644428D01*
X12924048Y-12615857D01*
X12933571Y-12577762D01*
X12933571Y-12501571D01*
X12924048Y-12482524D01*
X12914524Y-12473000D01*
X12895476Y-12463476D01*
X12857381Y-12463476D01*
X12838333Y-12473000D01*
X12828809Y-12482524D01*
X12819286Y-12501571D01*
X12819286Y-12549190D01*
X12828809Y-12568238D01*
X12838333Y-12577762D01*
X12857381Y-12587286D01*
X12895476Y-12587286D01*
X12914524Y-12577762D01*
X12924048Y-12568238D01*
X12933571Y-12549190D01*
X13009762Y-12482524D02*
X13019286Y-12473000D01*
X13038333Y-12463476D01*
X13085952Y-12463476D01*
X13105000Y-12473000D01*
X13114524Y-12482524D01*
X13124048Y-12501571D01*
X13124048Y-12520619D01*
X13114524Y-12549190D01*
X13000238Y-12663476D01*
X13124048Y-12663476D01*
X13209762Y-12663476D02*
X13209762Y-12530143D01*
X13209762Y-12549190D02*
X13219286Y-12539667D01*
X13238333Y-12530143D01*
X13266905Y-12530143D01*
X13285952Y-12539667D01*
X13295476Y-12558714D01*
X13295476Y-12663476D01*
X13295476Y-12558714D02*
X13305000Y-12539667D01*
X13324048Y-12530143D01*
X13352619Y-12530143D01*
X13371667Y-12539667D01*
X13381190Y-12558714D01*
X13381190Y-12663476D01*
X13476428Y-12663476D02*
X13476428Y-12530143D01*
X13476428Y-12549190D02*
X13485952Y-12539667D01*
X13505000Y-12530143D01*
X13533571Y-12530143D01*
X13552619Y-12539667D01*
X13562143Y-12558714D01*
X13562143Y-12663476D01*
X13562143Y-12558714D02*
X13571667Y-12539667D01*
X13590714Y-12530143D01*
X13619286Y-12530143D01*
X13638333Y-12539667D01*
X13647857Y-12558714D01*
X13647857Y-12663476D01*
X14038333Y-12453952D02*
X13866905Y-12711095D01*
X14295476Y-12463476D02*
X14314524Y-12463476D01*
X14333571Y-12473000D01*
X14343095Y-12482524D01*
X14352619Y-12501571D01*
X14362143Y-12539667D01*
X14362143Y-12587286D01*
X14352619Y-12625381D01*
X14343095Y-12644428D01*
X14333571Y-12653952D01*
X14314524Y-12663476D01*
X14295476Y-12663476D01*
X14276428Y-12653952D01*
X14266905Y-12644428D01*
X14257381Y-12625381D01*
X14247857Y-12587286D01*
X14247857Y-12539667D01*
X14257381Y-12501571D01*
X14266905Y-12482524D01*
X14276428Y-12473000D01*
X14295476Y-12463476D01*
X14447857Y-12644428D02*
X14457381Y-12653952D01*
X14447857Y-12663476D01*
X14438333Y-12653952D01*
X14447857Y-12644428D01*
X14447857Y-12663476D01*
X14581190Y-12463476D02*
X14600238Y-12463476D01*
X14619286Y-12473000D01*
X14628809Y-12482524D01*
X14638333Y-12501571D01*
X14647857Y-12539667D01*
X14647857Y-12587286D01*
X14638333Y-12625381D01*
X14628809Y-12644428D01*
X14619286Y-12653952D01*
X14600238Y-12663476D01*
X14581190Y-12663476D01*
X14562143Y-12653952D01*
X14552619Y-12644428D01*
X14543095Y-12625381D01*
X14533571Y-12587286D01*
X14533571Y-12539667D01*
X14543095Y-12501571D01*
X14552619Y-12482524D01*
X14562143Y-12473000D01*
X14581190Y-12463476D01*
X14819286Y-12530143D02*
X14819286Y-12663476D01*
X14771667Y-12453952D02*
X14724048Y-12596809D01*
X14847857Y-12596809D01*
X14905000Y-12463476D02*
X15028809Y-12463476D01*
X14962143Y-12539667D01*
X14990714Y-12539667D01*
X15009762Y-12549190D01*
X15019286Y-12558714D01*
X15028809Y-12577762D01*
X15028809Y-12625381D01*
X15019286Y-12644428D01*
X15009762Y-12653952D01*
X14990714Y-12663476D01*
X14933571Y-12663476D01*
X14914524Y-12653952D01*
X14905000Y-12644428D01*
X15152619Y-12463476D02*
X15171667Y-12463476D01*
X15190714Y-12473000D01*
X15200238Y-12482524D01*
X15209762Y-12501571D01*
X15219286Y-12539667D01*
X15219286Y-12587286D01*
X15209762Y-12625381D01*
X15200238Y-12644428D01*
X15190714Y-12653952D01*
X15171667Y-12663476D01*
X15152619Y-12663476D01*
X15133571Y-12653952D01*
X15124048Y-12644428D01*
X15114524Y-12625381D01*
X15105000Y-12587286D01*
X15105000Y-12539667D01*
X15114524Y-12501571D01*
X15124048Y-12482524D01*
X15133571Y-12473000D01*
X15152619Y-12463476D01*
X15295476Y-12463476D02*
X15295476Y-12501571D01*
X15371667Y-12463476D02*
X15371667Y-12501571D01*
X15666905Y-12739667D02*
X15657381Y-12730143D01*
X15638333Y-12701571D01*
X15628809Y-12682524D01*
X15619286Y-12653952D01*
X15609762Y-12606333D01*
X15609762Y-12568238D01*
X15619286Y-12520619D01*
X15628809Y-12492048D01*
X15638333Y-12473000D01*
X15657381Y-12444428D01*
X15666905Y-12434905D01*
X15733571Y-12482524D02*
X15743095Y-12473000D01*
X15762143Y-12463476D01*
X15809762Y-12463476D01*
X15828809Y-12473000D01*
X15838333Y-12482524D01*
X15847857Y-12501571D01*
X15847857Y-12520619D01*
X15838333Y-12549190D01*
X15724048Y-12663476D01*
X15847857Y-12663476D01*
X16019286Y-12530143D02*
X16019286Y-12663476D01*
X15971667Y-12453952D02*
X15924048Y-12596809D01*
X16047857Y-12596809D01*
X16276428Y-12663476D02*
X16276428Y-12463476D01*
X16362143Y-12663476D02*
X16362143Y-12558714D01*
X16352619Y-12539667D01*
X16333571Y-12530143D01*
X16305000Y-12530143D01*
X16285952Y-12539667D01*
X16276428Y-12549190D01*
X16485952Y-12663476D02*
X16466905Y-12653952D01*
X16457381Y-12644428D01*
X16447857Y-12625381D01*
X16447857Y-12568238D01*
X16457381Y-12549190D01*
X16466905Y-12539667D01*
X16485952Y-12530143D01*
X16514524Y-12530143D01*
X16533571Y-12539667D01*
X16543095Y-12549190D01*
X16552619Y-12568238D01*
X16552619Y-12625381D01*
X16543095Y-12644428D01*
X16533571Y-12653952D01*
X16514524Y-12663476D01*
X16485952Y-12663476D01*
X16666905Y-12663476D02*
X16647857Y-12653952D01*
X16638333Y-12634905D01*
X16638333Y-12463476D01*
X16819286Y-12653952D02*
X16800238Y-12663476D01*
X16762143Y-12663476D01*
X16743095Y-12653952D01*
X16733571Y-12634905D01*
X16733571Y-12558714D01*
X16743095Y-12539667D01*
X16762143Y-12530143D01*
X16800238Y-12530143D01*
X16819286Y-12539667D01*
X16828810Y-12558714D01*
X16828810Y-12577762D01*
X16733571Y-12596809D01*
X16905000Y-12653952D02*
X16924048Y-12663476D01*
X16962143Y-12663476D01*
X16981190Y-12653952D01*
X16990714Y-12634905D01*
X16990714Y-12625381D01*
X16981190Y-12606333D01*
X16962143Y-12596809D01*
X16933571Y-12596809D01*
X16914524Y-12587286D01*
X16905000Y-12568238D01*
X16905000Y-12558714D01*
X16914524Y-12539667D01*
X16933571Y-12530143D01*
X16962143Y-12530143D01*
X16981190Y-12539667D01*
X17057381Y-12739667D02*
X17066905Y-12730143D01*
X17085952Y-12701571D01*
X17095476Y-12682524D01*
X17105000Y-12653952D01*
X17114524Y-12606333D01*
X17114524Y-12568238D01*
X17105000Y-12520619D01*
X17095476Y-12492048D01*
X17085952Y-12473000D01*
X17066905Y-12444428D01*
X17057381Y-12434905D01*
X12065711Y-12907711D02*
X12065711Y-12766289D01*
X11924289Y-12766289D01*
X11924289Y-12907711D01*
X12065711Y-12907711D01*
X12333571Y-12727476D02*
X12457381Y-12727476D01*
X12390714Y-12803667D01*
X12419286Y-12803667D01*
X12438333Y-12813190D01*
X12447857Y-12822714D01*
X12457381Y-12841762D01*
X12457381Y-12889381D01*
X12447857Y-12908428D01*
X12438333Y-12917952D01*
X12419286Y-12927476D01*
X12362143Y-12927476D01*
X12343095Y-12917952D01*
X12333571Y-12908428D01*
X12543095Y-12908428D02*
X12552619Y-12917952D01*
X12543095Y-12927476D01*
X12533571Y-12917952D01*
X12543095Y-12908428D01*
X12543095Y-12927476D01*
X12628809Y-12746524D02*
X12638333Y-12737000D01*
X12657381Y-12727476D01*
X12705000Y-12727476D01*
X12724048Y-12737000D01*
X12733571Y-12746524D01*
X12743095Y-12765571D01*
X12743095Y-12784619D01*
X12733571Y-12813190D01*
X12619286Y-12927476D01*
X12743095Y-12927476D01*
X12866905Y-12727476D02*
X12885952Y-12727476D01*
X12905000Y-12737000D01*
X12914524Y-12746524D01*
X12924048Y-12765571D01*
X12933571Y-12803667D01*
X12933571Y-12851286D01*
X12924048Y-12889381D01*
X12914524Y-12908428D01*
X12905000Y-12917952D01*
X12885952Y-12927476D01*
X12866905Y-12927476D01*
X12847857Y-12917952D01*
X12838333Y-12908428D01*
X12828809Y-12889381D01*
X12819286Y-12851286D01*
X12819286Y-12803667D01*
X12828809Y-12765571D01*
X12838333Y-12746524D01*
X12847857Y-12737000D01*
X12866905Y-12727476D01*
X13057381Y-12727476D02*
X13076428Y-12727476D01*
X13095476Y-12737000D01*
X13105000Y-12746524D01*
X13114524Y-12765571D01*
X13124048Y-12803667D01*
X13124048Y-12851286D01*
X13114524Y-12889381D01*
X13105000Y-12908428D01*
X13095476Y-12917952D01*
X13076428Y-12927476D01*
X13057381Y-12927476D01*
X13038333Y-12917952D01*
X13028809Y-12908428D01*
X13019286Y-12889381D01*
X13009762Y-12851286D01*
X13009762Y-12803667D01*
X13019286Y-12765571D01*
X13028809Y-12746524D01*
X13038333Y-12737000D01*
X13057381Y-12727476D01*
X13209762Y-12927476D02*
X13209762Y-12794143D01*
X13209762Y-12813190D02*
X13219286Y-12803667D01*
X13238333Y-12794143D01*
X13266905Y-12794143D01*
X13285952Y-12803667D01*
X13295476Y-12822714D01*
X13295476Y-12927476D01*
X13295476Y-12822714D02*
X13305000Y-12803667D01*
X13324048Y-12794143D01*
X13352619Y-12794143D01*
X13371667Y-12803667D01*
X13381190Y-12822714D01*
X13381190Y-12927476D01*
X13476428Y-12927476D02*
X13476428Y-12794143D01*
X13476428Y-12813190D02*
X13485952Y-12803667D01*
X13505000Y-12794143D01*
X13533571Y-12794143D01*
X13552619Y-12803667D01*
X13562143Y-12822714D01*
X13562143Y-12927476D01*
X13562143Y-12822714D02*
X13571667Y-12803667D01*
X13590714Y-12794143D01*
X13619286Y-12794143D01*
X13638333Y-12803667D01*
X13647857Y-12822714D01*
X13647857Y-12927476D01*
X14038333Y-12717952D02*
X13866905Y-12975095D01*
X14295476Y-12727476D02*
X14314524Y-12727476D01*
X14333571Y-12737000D01*
X14343095Y-12746524D01*
X14352619Y-12765571D01*
X14362143Y-12803667D01*
X14362143Y-12851286D01*
X14352619Y-12889381D01*
X14343095Y-12908428D01*
X14333571Y-12917952D01*
X14314524Y-12927476D01*
X14295476Y-12927476D01*
X14276428Y-12917952D01*
X14266905Y-12908428D01*
X14257381Y-12889381D01*
X14247857Y-12851286D01*
X14247857Y-12803667D01*
X14257381Y-12765571D01*
X14266905Y-12746524D01*
X14276428Y-12737000D01*
X14295476Y-12727476D01*
X14447857Y-12908428D02*
X14457381Y-12917952D01*
X14447857Y-12927476D01*
X14438333Y-12917952D01*
X14447857Y-12908428D01*
X14447857Y-12927476D01*
X14647857Y-12927476D02*
X14533571Y-12927476D01*
X14590714Y-12927476D02*
X14590714Y-12727476D01*
X14571667Y-12756048D01*
X14552619Y-12775095D01*
X14533571Y-12784619D01*
X14724048Y-12746524D02*
X14733571Y-12737000D01*
X14752619Y-12727476D01*
X14800238Y-12727476D01*
X14819286Y-12737000D01*
X14828809Y-12746524D01*
X14838333Y-12765571D01*
X14838333Y-12784619D01*
X14828809Y-12813190D01*
X14714524Y-12927476D01*
X14838333Y-12927476D01*
X15009762Y-12727476D02*
X14971667Y-12727476D01*
X14952619Y-12737000D01*
X14943095Y-12746524D01*
X14924048Y-12775095D01*
X14914524Y-12813190D01*
X14914524Y-12889381D01*
X14924048Y-12908428D01*
X14933571Y-12917952D01*
X14952619Y-12927476D01*
X14990714Y-12927476D01*
X15009762Y-12917952D01*
X15019286Y-12908428D01*
X15028809Y-12889381D01*
X15028809Y-12841762D01*
X15019286Y-12822714D01*
X15009762Y-12813190D01*
X14990714Y-12803667D01*
X14952619Y-12803667D01*
X14933571Y-12813190D01*
X14924048Y-12822714D01*
X14914524Y-12841762D01*
X15152619Y-12727476D02*
X15171667Y-12727476D01*
X15190714Y-12737000D01*
X15200238Y-12746524D01*
X15209762Y-12765571D01*
X15219286Y-12803667D01*
X15219286Y-12851286D01*
X15209762Y-12889381D01*
X15200238Y-12908428D01*
X15190714Y-12917952D01*
X15171667Y-12927476D01*
X15152619Y-12927476D01*
X15133571Y-12917952D01*
X15124048Y-12908428D01*
X15114524Y-12889381D01*
X15105000Y-12851286D01*
X15105000Y-12803667D01*
X15114524Y-12765571D01*
X15124048Y-12746524D01*
X15133571Y-12737000D01*
X15152619Y-12727476D01*
X15295476Y-12727476D02*
X15295476Y-12765571D01*
X15371667Y-12727476D02*
X15371667Y-12765571D01*
X15666905Y-13003667D02*
X15657381Y-12994143D01*
X15638333Y-12965571D01*
X15628809Y-12946524D01*
X15619286Y-12917952D01*
X15609762Y-12870333D01*
X15609762Y-12832238D01*
X15619286Y-12784619D01*
X15628809Y-12756048D01*
X15638333Y-12737000D01*
X15657381Y-12708428D01*
X15666905Y-12698905D01*
X15724048Y-12727476D02*
X15847857Y-12727476D01*
X15781190Y-12803667D01*
X15809762Y-12803667D01*
X15828809Y-12813190D01*
X15838333Y-12822714D01*
X15847857Y-12841762D01*
X15847857Y-12889381D01*
X15838333Y-12908428D01*
X15828809Y-12917952D01*
X15809762Y-12927476D01*
X15752619Y-12927476D01*
X15733571Y-12917952D01*
X15724048Y-12908428D01*
X16085952Y-12927476D02*
X16085952Y-12727476D01*
X16171667Y-12927476D02*
X16171667Y-12822714D01*
X16162143Y-12803667D01*
X16143095Y-12794143D01*
X16114524Y-12794143D01*
X16095476Y-12803667D01*
X16085952Y-12813190D01*
X16295476Y-12927476D02*
X16276428Y-12917952D01*
X16266905Y-12908428D01*
X16257381Y-12889381D01*
X16257381Y-12832238D01*
X16266905Y-12813190D01*
X16276428Y-12803667D01*
X16295476Y-12794143D01*
X16324048Y-12794143D01*
X16343095Y-12803667D01*
X16352619Y-12813190D01*
X16362143Y-12832238D01*
X16362143Y-12889381D01*
X16352619Y-12908428D01*
X16343095Y-12917952D01*
X16324048Y-12927476D01*
X16295476Y-12927476D01*
X16476428Y-12927476D02*
X16457381Y-12917952D01*
X16447857Y-12898905D01*
X16447857Y-12727476D01*
X16628809Y-12917952D02*
X16609762Y-12927476D01*
X16571667Y-12927476D01*
X16552619Y-12917952D01*
X16543095Y-12898905D01*
X16543095Y-12822714D01*
X16552619Y-12803667D01*
X16571667Y-12794143D01*
X16609762Y-12794143D01*
X16628809Y-12803667D01*
X16638333Y-12822714D01*
X16638333Y-12841762D01*
X16543095Y-12860809D01*
X16714524Y-12917952D02*
X16733571Y-12927476D01*
X16771667Y-12927476D01*
X16790714Y-12917952D01*
X16800238Y-12898905D01*
X16800238Y-12889381D01*
X16790714Y-12870333D01*
X16771667Y-12860809D01*
X16743095Y-12860809D01*
X16724048Y-12851286D01*
X16714524Y-12832238D01*
X16714524Y-12822714D01*
X16724048Y-12803667D01*
X16743095Y-12794143D01*
X16771667Y-12794143D01*
X16790714Y-12803667D01*
X16866905Y-13003667D02*
X16876429Y-12994143D01*
X16895476Y-12965571D01*
X16905000Y-12946524D01*
X16914524Y-12917952D01*
X16924048Y-12870333D01*
X16924048Y-12832238D01*
X16914524Y-12784619D01*
X16905000Y-12756048D01*
X16895476Y-12737000D01*
X16876429Y-12708428D01*
X16866905Y-12698905D01*
M02*
