G04 #@! TF.GenerationSoftware,KiCad,Pcbnew,(6.0.10)*
G04 #@! TF.CreationDate,2023-05-08T16:14:21+03:00*
G04 #@! TF.ProjectId,trinteract,7472696e-7465-4726-9163-742e6b696361,rev?*
G04 #@! TF.SameCoordinates,Original*
G04 #@! TF.FileFunction,Copper,L1,Top*
G04 #@! TF.FilePolarity,Positive*
%FSLAX46Y46*%
G04 Gerber Fmt 4.6, Leading zero omitted, Abs format (unit mm)*
G04 Created by KiCad (PCBNEW (6.0.10)) date 2023-05-08 16:14:21*
%MOMM*%
%LPD*%
G01*
G04 APERTURE LIST*
G04 Aperture macros list*
%AMRoundRect*
0 Rectangle with rounded corners*
0 $1 Rounding radius*
0 $2 $3 $4 $5 $6 $7 $8 $9 X,Y pos of 4 corners*
0 Add a 4 corners polygon primitive as box body*
4,1,4,$2,$3,$4,$5,$6,$7,$8,$9,$2,$3,0*
0 Add four circle primitives for the rounded corners*
1,1,$1+$1,$2,$3*
1,1,$1+$1,$4,$5*
1,1,$1+$1,$6,$7*
1,1,$1+$1,$8,$9*
0 Add four rect primitives between the rounded corners*
20,1,$1+$1,$2,$3,$4,$5,0*
20,1,$1+$1,$4,$5,$6,$7,0*
20,1,$1+$1,$6,$7,$8,$9,0*
20,1,$1+$1,$8,$9,$2,$3,0*%
G04 Aperture macros list end*
G04 #@! TA.AperFunction,SMDPad,CuDef*
%ADD10R,1.600000X1.500000*%
G04 #@! TD*
G04 #@! TA.AperFunction,ComponentPad*
%ADD11C,5.600000*%
G04 #@! TD*
G04 #@! TA.AperFunction,SMDPad,CuDef*
%ADD12RoundRect,0.250000X0.350000X0.450000X-0.350000X0.450000X-0.350000X-0.450000X0.350000X-0.450000X0*%
G04 #@! TD*
G04 #@! TA.AperFunction,SMDPad,CuDef*
%ADD13RoundRect,0.250000X-0.450000X0.350000X-0.450000X-0.350000X0.450000X-0.350000X0.450000X0.350000X0*%
G04 #@! TD*
G04 #@! TA.AperFunction,SMDPad,CuDef*
%ADD14R,0.507200X0.794499*%
G04 #@! TD*
G04 #@! TA.AperFunction,SMDPad,CuDef*
%ADD15RoundRect,0.250000X-0.475000X0.337500X-0.475000X-0.337500X0.475000X-0.337500X0.475000X0.337500X0*%
G04 #@! TD*
G04 #@! TA.AperFunction,ComponentPad*
%ADD16C,1.752600*%
G04 #@! TD*
G04 #@! TA.AperFunction,ComponentPad*
%ADD17R,1.700000X1.700000*%
G04 #@! TD*
G04 #@! TA.AperFunction,ComponentPad*
%ADD18O,1.700000X1.700000*%
G04 #@! TD*
G04 #@! TA.AperFunction,ViaPad*
%ADD19C,0.800000*%
G04 #@! TD*
G04 #@! TA.AperFunction,Conductor*
%ADD20C,0.500000*%
G04 #@! TD*
G04 #@! TA.AperFunction,Conductor*
%ADD21C,0.250000*%
G04 #@! TD*
G04 APERTURE END LIST*
D10*
G04 #@! TO.P,D1,1,A*
G04 #@! TO.N,Net-(D1-Pad1)*
X154000000Y-102750000D03*
G04 #@! TO.P,D1,2,K*
G04 #@! TO.N,GND*
X154000000Y-99250000D03*
G04 #@! TD*
D11*
G04 #@! TO.P,H3,1*
G04 #@! TO.N,N/C*
X159000000Y-101000000D03*
G04 #@! TD*
D12*
G04 #@! TO.P,R3,1*
G04 #@! TO.N,+3.3V*
X148500000Y-103500000D03*
G04 #@! TO.P,R3,2*
G04 #@! TO.N,Net-(R3-Pad2)*
X146500000Y-103500000D03*
G04 #@! TD*
D11*
G04 #@! TO.P,H1,1*
G04 #@! TO.N,N/C*
X125000000Y-92000000D03*
G04 #@! TD*
D12*
G04 #@! TO.P,R1,1*
G04 #@! TO.N,+3.3V*
X148500000Y-98500000D03*
G04 #@! TO.P,R1,2*
G04 #@! TO.N,Net-(R1-Pad2)*
X146500000Y-98500000D03*
G04 #@! TD*
D11*
G04 #@! TO.P,H2,1*
G04 #@! TO.N,N/C*
X125000000Y-110000000D03*
G04 #@! TD*
D13*
G04 #@! TO.P,R2,1*
G04 #@! TO.N,+3.3V*
X151000000Y-100000000D03*
G04 #@! TO.P,R2,2*
G04 #@! TO.N,Net-(D1-Pad1)*
X151000000Y-102000000D03*
G04 #@! TD*
D14*
G04 #@! TO.P,U1,1,SCL/INT*
G04 #@! TO.N,Net-(R1-Pad2)*
X141049999Y-102248151D03*
G04 #@! TO.P,U1,2,GND*
G04 #@! TO.N,GND*
X142000000Y-102248151D03*
G04 #@! TO.P,U1,3,GND*
X142950001Y-102248151D03*
G04 #@! TO.P,U1,4,VDD*
G04 #@! TO.N,+3.3V*
X142950001Y-99751849D03*
G04 #@! TO.P,U1,5,GND*
G04 #@! TO.N,GND*
X142000000Y-99751849D03*
G04 #@! TO.P,U1,6,SDA/ADDR*
G04 #@! TO.N,Net-(R3-Pad2)*
X141049999Y-99751849D03*
G04 #@! TD*
D15*
G04 #@! TO.P,C1,1*
G04 #@! TO.N,+3.3V*
X134765000Y-99962500D03*
G04 #@! TO.P,C1,2*
G04 #@! TO.N,GND*
X134765000Y-102037500D03*
G04 #@! TD*
D16*
G04 #@! TO.P,U2,1,TX*
G04 #@! TO.N,Net-(U2-Pad1)*
X158970000Y-108620000D03*
G04 #@! TO.P,U2,2,RX*
G04 #@! TO.N,Net-(U2-Pad2)*
X156430000Y-108620000D03*
G04 #@! TO.P,U2,3,GND*
G04 #@! TO.N,GND*
X153890000Y-108620000D03*
G04 #@! TO.P,U2,4,GND*
X151350000Y-108620000D03*
G04 #@! TO.P,U2,5,SDA*
G04 #@! TO.N,Net-(R3-Pad2)*
X148810000Y-108620000D03*
G04 #@! TO.P,U2,6,SCL*
G04 #@! TO.N,Net-(R1-Pad2)*
X146270000Y-108620000D03*
G04 #@! TO.P,U2,7,D4*
G04 #@! TO.N,Net-(R4-Pad1)*
X143730000Y-108620000D03*
G04 #@! TO.P,U2,8,D5*
G04 #@! TO.N,Net-(U2-Pad8)*
X141190000Y-108620000D03*
G04 #@! TO.P,U2,9,D6*
G04 #@! TO.N,Net-(U2-Pad9)*
X138650000Y-108620000D03*
G04 #@! TO.P,U2,10,D7*
G04 #@! TO.N,Net-(U2-Pad10)*
X136110000Y-108620000D03*
G04 #@! TO.P,U2,11,D8*
G04 #@! TO.N,Net-(U2-Pad11)*
X133570000Y-108620000D03*
G04 #@! TO.P,U2,12,D9*
G04 #@! TO.N,Net-(U2-Pad12)*
X131030000Y-108620000D03*
G04 #@! TO.P,U2,13,D10*
G04 #@! TO.N,Net-(U2-Pad13)*
X131030000Y-93380000D03*
G04 #@! TO.P,U2,14,MOSI*
G04 #@! TO.N,Net-(U2-Pad14)*
X133570000Y-93380000D03*
G04 #@! TO.P,U2,15,MISO*
G04 #@! TO.N,Net-(U2-Pad15)*
X136110000Y-93380000D03*
G04 #@! TO.P,U2,16,SCLK*
G04 #@! TO.N,Net-(U2-Pad16)*
X138650000Y-93380000D03*
G04 #@! TO.P,U2,17,A0*
G04 #@! TO.N,Net-(U2-Pad17)*
X141190000Y-93380000D03*
G04 #@! TO.P,U2,18,A1*
G04 #@! TO.N,Net-(U2-Pad18)*
X143730000Y-93380000D03*
G04 #@! TO.P,U2,19,A2*
G04 #@! TO.N,Net-(U2-Pad19)*
X146270000Y-93380000D03*
G04 #@! TO.P,U2,20,A3*
G04 #@! TO.N,Net-(U2-Pad20)*
X148810000Y-93380000D03*
G04 #@! TO.P,U2,21,VCC*
G04 #@! TO.N,+3.3V*
X151350000Y-93380000D03*
G04 #@! TO.P,U2,22,RST*
G04 #@! TO.N,Net-(U2-Pad22)*
X153890000Y-93380000D03*
G04 #@! TO.P,U2,23,GND*
G04 #@! TO.N,GND*
X156430000Y-93380000D03*
G04 #@! TO.P,U2,24,RAW*
G04 #@! TO.N,Net-(U2-Pad24)*
X158970000Y-93380000D03*
G04 #@! TD*
D17*
G04 #@! TO.P,J3,1,Pin_1*
G04 #@! TO.N,GND*
X151370000Y-111955000D03*
D18*
G04 #@! TO.P,J3,2,Pin_2*
X153910000Y-111955000D03*
G04 #@! TO.P,J3,3,Pin_3*
G04 #@! TO.N,Net-(U2-Pad2)*
X156450000Y-111955000D03*
G04 #@! TO.P,J3,4,Pin_4*
G04 #@! TO.N,Net-(U2-Pad1)*
X158990000Y-111955000D03*
G04 #@! TD*
D17*
G04 #@! TO.P,J1,1,Pin_1*
G04 #@! TO.N,Net-(U2-Pad24)*
X159000000Y-90000000D03*
D18*
G04 #@! TO.P,J1,2,Pin_2*
G04 #@! TO.N,GND*
X156460000Y-90000000D03*
G04 #@! TO.P,J1,3,Pin_3*
G04 #@! TO.N,Net-(U2-Pad22)*
X153920000Y-90000000D03*
G04 #@! TO.P,J1,4,Pin_4*
G04 #@! TO.N,+3.3V*
X151380000Y-90000000D03*
G04 #@! TO.P,J1,5,Pin_5*
G04 #@! TO.N,Net-(U2-Pad20)*
X148840000Y-90000000D03*
G04 #@! TO.P,J1,6,Pin_6*
G04 #@! TO.N,Net-(U2-Pad19)*
X146300000Y-90000000D03*
G04 #@! TO.P,J1,7,Pin_7*
G04 #@! TO.N,Net-(U2-Pad18)*
X143760000Y-90000000D03*
G04 #@! TO.P,J1,8,Pin_8*
G04 #@! TO.N,Net-(U2-Pad17)*
X141220000Y-90000000D03*
G04 #@! TO.P,J1,9,Pin_9*
G04 #@! TO.N,Net-(U2-Pad16)*
X138680000Y-90000000D03*
G04 #@! TO.P,J1,10,Pin_10*
G04 #@! TO.N,Net-(U2-Pad15)*
X136140000Y-90000000D03*
G04 #@! TO.P,J1,11,Pin_11*
G04 #@! TO.N,Net-(U2-Pad14)*
X133600000Y-90000000D03*
G04 #@! TO.P,J1,12,Pin_12*
G04 #@! TO.N,Net-(U2-Pad13)*
X131060000Y-90000000D03*
G04 #@! TD*
D17*
G04 #@! TO.P,J2,1,Pin_1*
G04 #@! TO.N,Net-(U2-Pad12)*
X131025000Y-112000000D03*
D18*
G04 #@! TO.P,J2,2,Pin_2*
G04 #@! TO.N,Net-(U2-Pad11)*
X133565000Y-112000000D03*
G04 #@! TO.P,J2,3,Pin_3*
G04 #@! TO.N,Net-(U2-Pad10)*
X136105000Y-112000000D03*
G04 #@! TO.P,J2,4,Pin_4*
G04 #@! TO.N,Net-(U2-Pad9)*
X138645000Y-112000000D03*
G04 #@! TO.P,J2,5,Pin_5*
G04 #@! TO.N,Net-(U2-Pad8)*
X141185000Y-112000000D03*
G04 #@! TD*
D19*
G04 #@! TO.N,GND*
X132500000Y-101000000D03*
X142000000Y-98500000D03*
X142500000Y-103500000D03*
G04 #@! TO.N,Net-(R3-Pad2)*
X139000000Y-101000000D03*
G04 #@! TD*
D20*
G04 #@! TO.N,+3.3V*
X149865000Y-94865000D02*
X151000000Y-96000000D01*
X137500000Y-95500000D02*
X134765000Y-98235000D01*
X151350000Y-90030000D02*
X151380000Y-90000000D01*
X148500000Y-95500000D02*
X143000000Y-95500000D01*
X151350000Y-93380000D02*
X151350000Y-90030000D01*
X151350000Y-93380000D02*
X149865000Y-94865000D01*
X143000000Y-95500000D02*
X142950001Y-95549999D01*
X143000000Y-95500000D02*
X137500000Y-95500000D01*
X142950001Y-95549999D02*
X142950001Y-99751849D01*
X148500000Y-95500000D02*
X148500000Y-98500000D01*
X151000000Y-96000000D02*
X151000000Y-100000000D01*
X134765000Y-98235000D02*
X134765000Y-99962500D01*
X149230000Y-95500000D02*
X148500000Y-95500000D01*
X148590000Y-98365000D02*
X148590000Y-103445000D01*
X149865000Y-94865000D02*
X149230000Y-95500000D01*
D21*
G04 #@! TO.N,GND*
X153890000Y-111935000D02*
X153910000Y-111955000D01*
X134765000Y-102037500D02*
X133537500Y-102037500D01*
X153890000Y-108620000D02*
X153890000Y-111935000D01*
X142000000Y-99751849D02*
X142000000Y-98500000D01*
X142000000Y-102248151D02*
X142000000Y-99751849D01*
X156430000Y-90030000D02*
X156460000Y-90000000D01*
X133537500Y-102037500D02*
X132500000Y-101000000D01*
X142000000Y-103000000D02*
X142500000Y-103500000D01*
X151350000Y-111935000D02*
X151370000Y-111955000D01*
X142950001Y-102248151D02*
X142000000Y-102248151D01*
X154000000Y-99250000D02*
X154000000Y-95810000D01*
X151350000Y-108620000D02*
X151350000Y-111935000D01*
X154000000Y-95810000D02*
X156430000Y-93380000D01*
X156430000Y-93380000D02*
X156430000Y-90030000D01*
X142000000Y-102248151D02*
X142000000Y-103000000D01*
D20*
G04 #@! TO.N,Net-(D1-Pad1)*
X151000000Y-102000000D02*
X151750000Y-102750000D01*
X151750000Y-102750000D02*
X154000000Y-102750000D01*
D21*
G04 #@! TO.N,Net-(R1-Pad2)*
X141049999Y-103399999D02*
X142575000Y-104925000D01*
X146500000Y-101000000D02*
X142575000Y-104925000D01*
X142825000Y-105175000D02*
X146270000Y-108620000D01*
X146500000Y-98500000D02*
X146500000Y-101000000D01*
X141049999Y-102248151D02*
X141049999Y-103399999D01*
X142575000Y-104925000D02*
X142825000Y-105175000D01*
G04 #@! TO.N,Net-(R3-Pad2)*
X140248151Y-99751849D02*
X139000000Y-101000000D01*
X141049999Y-99751849D02*
X140248151Y-99751849D01*
X146500000Y-103500000D02*
X146500000Y-106310000D01*
X146500000Y-106310000D02*
X148810000Y-108620000D01*
G04 #@! TO.N,Net-(U2-Pad24)*
X158970000Y-93380000D02*
X158970000Y-90030000D01*
X158970000Y-90030000D02*
X159000000Y-90000000D01*
G04 #@! TO.N,Net-(U2-Pad22)*
X153890000Y-93380000D02*
X153890000Y-90030000D01*
X153890000Y-90030000D02*
X153920000Y-90000000D01*
G04 #@! TO.N,Net-(U2-Pad20)*
X148810000Y-93380000D02*
X148810000Y-90030000D01*
X148810000Y-90030000D02*
X148840000Y-90000000D01*
G04 #@! TO.N,Net-(U2-Pad19)*
X146270000Y-90030000D02*
X146300000Y-90000000D01*
X146270000Y-93380000D02*
X146270000Y-90030000D01*
G04 #@! TO.N,Net-(U2-Pad18)*
X143730000Y-90030000D02*
X143760000Y-90000000D01*
X143730000Y-93380000D02*
X143730000Y-90030000D01*
G04 #@! TO.N,Net-(U2-Pad17)*
X141190000Y-90030000D02*
X141220000Y-90000000D01*
X141190000Y-93380000D02*
X141190000Y-90030000D01*
G04 #@! TO.N,Net-(U2-Pad16)*
X138650000Y-93380000D02*
X138650000Y-90030000D01*
X138650000Y-90030000D02*
X138680000Y-90000000D01*
G04 #@! TO.N,Net-(U2-Pad15)*
X136110000Y-93380000D02*
X136110000Y-90030000D01*
X136110000Y-90030000D02*
X136140000Y-90000000D01*
G04 #@! TO.N,Net-(U2-Pad14)*
X133570000Y-90030000D02*
X133600000Y-90000000D01*
X133570000Y-93380000D02*
X133570000Y-90030000D01*
G04 #@! TO.N,Net-(U2-Pad13)*
X131030000Y-90030000D02*
X131060000Y-90000000D01*
X131030000Y-93380000D02*
X131030000Y-90030000D01*
G04 #@! TO.N,Net-(U2-Pad12)*
X131030000Y-108620000D02*
X131030000Y-111995000D01*
X131030000Y-111995000D02*
X131025000Y-112000000D01*
G04 #@! TO.N,Net-(U2-Pad11)*
X133570000Y-108620000D02*
X133570000Y-111995000D01*
X133570000Y-111995000D02*
X133565000Y-112000000D01*
G04 #@! TO.N,Net-(U2-Pad10)*
X136110000Y-108620000D02*
X136110000Y-111995000D01*
X136110000Y-111995000D02*
X136105000Y-112000000D01*
G04 #@! TO.N,Net-(U2-Pad9)*
X138650000Y-108620000D02*
X138650000Y-111995000D01*
X138650000Y-111995000D02*
X138645000Y-112000000D01*
G04 #@! TO.N,Net-(U2-Pad8)*
X141190000Y-111995000D02*
X141185000Y-112000000D01*
X141190000Y-108620000D02*
X141190000Y-111995000D01*
G04 #@! TO.N,Net-(U2-Pad2)*
X156430000Y-111935000D02*
X156450000Y-111955000D01*
X156430000Y-108620000D02*
X156430000Y-111935000D01*
G04 #@! TO.N,Net-(U2-Pad1)*
X158970000Y-111935000D02*
X158990000Y-111955000D01*
X158970000Y-108620000D02*
X158970000Y-111935000D01*
G04 #@! TD*
M02*
