G04 #@! TF.GenerationSoftware,KiCad,Pcbnew,(6.0.10)*
G04 #@! TF.CreationDate,2023-05-08T16:14:21+03:00*
G04 #@! TF.ProjectId,trinteract,7472696e-7465-4726-9163-742e6b696361,rev?*
G04 #@! TF.SameCoordinates,Original*
G04 #@! TF.FileFunction,Soldermask,Bot*
G04 #@! TF.FilePolarity,Negative*
%FSLAX46Y46*%
G04 Gerber Fmt 4.6, Leading zero omitted, Abs format (unit mm)*
G04 Created by KiCad (PCBNEW (6.0.10)) date 2023-05-08 16:14:21*
%MOMM*%
%LPD*%
G01*
G04 APERTURE LIST*
G04 Aperture macros list*
%AMRoundRect*
0 Rectangle with rounded corners*
0 $1 Rounding radius*
0 $2 $3 $4 $5 $6 $7 $8 $9 X,Y pos of 4 corners*
0 Add a 4 corners polygon primitive as box body*
4,1,4,$2,$3,$4,$5,$6,$7,$8,$9,$2,$3,0*
0 Add four circle primitives for the rounded corners*
1,1,$1+$1,$2,$3*
1,1,$1+$1,$4,$5*
1,1,$1+$1,$6,$7*
1,1,$1+$1,$8,$9*
0 Add four rect primitives between the rounded corners*
20,1,$1+$1,$2,$3,$4,$5,0*
20,1,$1+$1,$4,$5,$6,$7,0*
20,1,$1+$1,$6,$7,$8,$9,0*
20,1,$1+$1,$8,$9,$2,$3,0*%
G04 Aperture macros list end*
%ADD10C,5.600000*%
%ADD11C,1.752600*%
%ADD12R,1.000000X1.700000*%
%ADD13R,1.700000X1.700000*%
%ADD14O,1.700000X1.700000*%
%ADD15RoundRect,0.250000X0.450000X-0.350000X0.450000X0.350000X-0.450000X0.350000X-0.450000X-0.350000X0*%
G04 APERTURE END LIST*
D10*
G04 #@! TO.C,H3*
X159000000Y-101000000D03*
G04 #@! TD*
G04 #@! TO.C,H1*
X125000000Y-92000000D03*
G04 #@! TD*
G04 #@! TO.C,H2*
X125000000Y-110000000D03*
G04 #@! TD*
D11*
G04 #@! TO.C,U2*
X158970000Y-108620000D03*
X156430000Y-108620000D03*
X153890000Y-108620000D03*
X151350000Y-108620000D03*
X148810000Y-108620000D03*
X146270000Y-108620000D03*
X143730000Y-108620000D03*
X141190000Y-108620000D03*
X138650000Y-108620000D03*
X136110000Y-108620000D03*
X133570000Y-108620000D03*
X131030000Y-108620000D03*
X131030000Y-93380000D03*
X133570000Y-93380000D03*
X136110000Y-93380000D03*
X138650000Y-93380000D03*
X141190000Y-93380000D03*
X143730000Y-93380000D03*
X146270000Y-93380000D03*
X148810000Y-93380000D03*
X151350000Y-93380000D03*
X153890000Y-93380000D03*
X156430000Y-93380000D03*
X158970000Y-93380000D03*
G04 #@! TD*
D12*
G04 #@! TO.C,SW1*
X123100000Y-104150000D03*
X123100000Y-97850000D03*
X126900000Y-104150000D03*
X126900000Y-97850000D03*
G04 #@! TD*
D13*
G04 #@! TO.C,J3*
X151370000Y-111955000D03*
D14*
X153910000Y-111955000D03*
X156450000Y-111955000D03*
X158990000Y-111955000D03*
G04 #@! TD*
D13*
G04 #@! TO.C,J1*
X159000000Y-90000000D03*
D14*
X156460000Y-90000000D03*
X153920000Y-90000000D03*
X151380000Y-90000000D03*
X148840000Y-90000000D03*
X146300000Y-90000000D03*
X143760000Y-90000000D03*
X141220000Y-90000000D03*
X138680000Y-90000000D03*
X136140000Y-90000000D03*
X133600000Y-90000000D03*
X131060000Y-90000000D03*
G04 #@! TD*
D15*
G04 #@! TO.C,R4*
X130125000Y-102000000D03*
X130125000Y-100000000D03*
G04 #@! TD*
D13*
G04 #@! TO.C,J2*
X131025000Y-112000000D03*
D14*
X133565000Y-112000000D03*
X136105000Y-112000000D03*
X138645000Y-112000000D03*
X141185000Y-112000000D03*
G04 #@! TD*
M02*
